<?xml version="1.0" encoding="utf-8"?>
<!-- Generator: Adobe Illustrator 25.3.1, SVG Export Plug-In . SVG Version: 6.00 Build 0)  -->
<svg version="1.1" id="Layer_1" xmlns="http://www.w3.org/2000/svg" xmlns:xlink="http://www.w3.org/1999/xlink" x="0px" y="0px"
	 viewBox="0 0 1199.01 636" style="enable-background:new 0 0 1199.01 636;" xml:space="preserve">
<style type="text/css">
	.st0{fill:#1D53FF;}
	.st1{fill:#FFFFFF;}
	.st2{fill:url(#SVGID_1_);}
	.st3{fill:#2EA1FF;}
	.st4{fill:#00384B;}
	.st5{fill:url(#SVGID_2_);}
	.st6{fill:#385F6E;}
	.st7{fill:#651FFF;}
	.st8{fill:url(#SVGID_3_);}
	.st9{fill:#8C6CFF;}
</style>
<rect x="-3793.63" y="-664.24" class="st0" width="1199.01" height="636"/>
<g>
	<g>
		<path class="st1" d="M-3383.75-354.97c8.77,3.89,13.85,10.26,13.85,20.13c0,13.65-9.67,23.62-34.78,23.62h-46.73v-83.7h47.23
			c24.41,0,31.79,10.26,31.79,21.72c0,9.07-4.58,13.75-11.36,16.94V-354.97z M-3428.89-377.59v16.64h22.82
			c8.17,0,12.16-3.19,12.16-8.17c0-5.18-3.99-8.47-12.16-8.47H-3428.89z M-3405.17-328.67c8.27,0,12.56-4.18,12.56-9.77
			c0-5.48-4.28-9.17-12.56-9.17h-23.72v18.93H-3405.17z"/>
		<path class="st1" d="M-3359.44-353.08c0-26.51,18.63-44.64,46.54-44.64c27.8,0,46.44,18.14,46.44,44.64
			c0,26.41-18.63,44.64-46.44,44.64C-3340.8-308.44-3359.44-326.67-3359.44-353.08z M-3288.69-353.08
			c0-15.45-10.66-25.21-24.21-25.21c-13.65,0-24.21,9.77-24.21,25.21c0,15.35,10.56,25.21,24.21,25.21
			C-3299.35-327.87-3288.69-337.73-3288.69-353.08z"/>
		<path class="st1" d="M-3254.71-353.08c0-26.51,18.63-44.64,46.54-44.64c27.8,0,46.44,18.14,46.44,44.64
			c0,26.41-18.63,44.64-46.44,44.64C-3236.08-308.44-3254.71-326.67-3254.71-353.08z M-3183.96-353.08
			c0-15.45-10.66-25.21-24.21-25.21c-13.65,0-24.21,9.77-24.21,25.21c0,15.35,10.56,25.21,24.21,25.21
			C-3194.63-327.87-3183.96-337.73-3183.96-353.08z"/>
		<path class="st1" d="M-3086.21-311.23l-25.71-32.98h-1.49l-13.45,14.05v18.93h-22.42v-83.7h22.42v37.77h1.49l35.47-37.77h25.21
			l-34.58,37.17l36.27,46.54H-3086.21z"/>
		<path class="st1" d="M-3053.83-394.93h22.52v83.7h-22.52V-394.93z"/>
		<path class="st1" d="M-3017.36-394.93h72.05v18.73h-49.52v16.94h46.93v16.64h-46.93v31.39h-22.52V-394.93z"/>
		<path class="st1" d="M-2877.96-337.73v26.51h-22.42v-26.61l-34.48-57.1h23.82l20.83,35.47h2.09l20.93-35.47h23.72L-2877.96-337.73
			z"/>
	</g>
	<g>
		<path class="st1" d="M-3290.7-291.26h5v24.41h-5V-291.26z"/>
		<path class="st1" d="M-3281.29-291.26h5.84l12.41,17.49h0.52v-17.49h4.94v24.41h-5.78l-12.55-17.49h-0.44v17.49h-4.94V-291.26z"/>
		<path class="st1" d="M-3253.8-274.21h4.53c0.26,2.53,2.3,4.1,6.48,4.15c4.01-0.03,6.31-1.45,6.31-3.63c0-1.98-1.69-2.82-4.77-3.37
			l-2.99-0.52c-4.59-0.84-8.86-2.27-8.86-7.29c0-4.56,3.86-7.21,10.4-7.21c6.13,0,10.4,2.35,10.52,8.08h-4.53
			c-0.41-2.41-2.24-4.04-6.1-4.04c-3.52,0-5.49,1.22-5.49,3.4c0,1.71,1.45,2.67,4.18,3.23l2.64,0.46c4.59,0.84,10,1.83,10,7.41
			c0,4.68-3.92,7.47-11.3,7.5C-3249.88-266.04-3253.77-268.69-3253.8-274.21z"/>
		<path class="st1" d="M-3227.62-266.85v-24.41h12.38c6.45,0,9.88,3.17,9.88,8.77c0,5.55-3.43,8.69-9.91,8.69h-7.35v6.94H-3227.62z
			 M-3222.63-278.04h7.12c3.14,0,5.08-1.48,5.08-4.45c0-3.02-1.95-4.53-5.11-4.53h-7.09V-278.04z"/>
		<path class="st1" d="M-3201.3-291.26h5v24.41h-5V-291.26z"/>
		<path class="st1" d="M-3169.14-266.85h-5.03l-4.27-7.58h-8.46v7.58h-5v-24.41h12.41c6.48,0,9.79,3.11,9.79,8.57
			c0,3.43-1.71,5.93-4.36,7.26L-3169.14-266.85z M-3186.89-287.02v8.66h7.18c3.23,0,5.06-1.45,5.06-4.33c0-2.88-1.83-4.33-5.06-4.33
			H-3186.89z"/>
		<path class="st1" d="M-3165.31-291.26h5v24.41h-5V-291.26z"/>
		<path class="st1" d="M-3155.89-291.26h5.84l12.41,17.49h0.52v-17.49h4.94v24.41h-5.78l-12.55-17.49h-0.44v17.49h-4.94V-291.26z"/>
		<path class="st1" d="M-3102.78-266.85h-3.4l-0.03-3.66c-1.69,2.64-4.79,4.47-9.12,4.47c-7.35,0-12.93-5.38-12.93-13.02
			c0-7.61,5.46-13.02,13.31-13.02c5.11,0,10.29,2.35,11.71,8.34h-5.06c-1.08-2.53-3.46-3.95-6.6-3.95c-4.82,0-8.43,3.57-8.43,8.63
			c0,5,3.6,8.63,8.37,8.63c2.88,0,6.33-1.34,7.21-5.29h-7.67v-3.84h12.64V-266.85z"/>
		<path class="st1" d="M-3070.91-266.85l-8.48-10.49h-0.38l-4.5,4.62v5.87h-4.97v-24.41h4.97v12.41h0.44l11.86-12.41h5.78
			l-10.26,10.84l10.87,13.57H-3070.91z"/>
		<path class="st1" d="M-3062.49-291.26h5.84l12.41,17.49h0.52v-17.49h4.94v24.41h-5.78l-12.55-17.49h-0.44v17.49h-4.94V-291.26z"/>
		<path class="st1" d="M-3034.63-278.83c0-7.5,5.35-12.78,12.99-12.78c7.73,0,13.07,5.29,13.07,12.78c0,7.5-5.35,12.79-13.07,12.79
			C-3029.28-266.04-3034.63-271.33-3034.63-278.83z M-3013.5-278.83c0-5-3.46-8.48-8.14-8.48c-4.59,0-8.14,3.49-8.14,8.48
			c0,5.03,3.54,8.48,8.14,8.48C-3016.96-270.34-3013.5-273.8-3013.5-278.83z"/>
		<path class="st1" d="M-3006.56-291.26h5.06l4.33,19.03h0.47l5.03-19.03h4.36l5.08,19.03h0.46l4.27-19.03h5.11l-5.72,24.41h-6.83
			l-4.3-16.62h-0.52l-4.3,16.62h-6.77L-3006.56-291.26z"/>
		<path class="st1" d="M-2968.65-291.26h5v20.19h14.41v4.21h-19.41V-291.26z"/>
		<path class="st1" d="M-2945.14-291.26h20.05v4.15h-15.05v6.1h14.53v3.81h-14.53v6.13h15.05v4.21h-20.05V-291.26z"/>
		<path class="st1" d="M-2896.85-279.06c0,6.94-3.66,12.2-12.96,12.2h-10.87v-24.41h10.87
			C-2900.51-291.26-2896.85-285.97-2896.85-279.06z M-2901.91-279.06c0-4.97-2.7-7.93-7.96-7.93h-5.72l-0.09,15.89h5.81
			C-2904.61-271.1-2901.91-274.06-2901.91-279.06z"/>
		<path class="st1" d="M-2867.74-266.85h-3.4l-0.03-3.66c-1.69,2.64-4.79,4.47-9.12,4.47c-7.35,0-12.93-5.38-12.93-13.02
			c0-7.61,5.46-13.02,13.31-13.02c5.11,0,10.29,2.35,11.71,8.34h-5.06c-1.08-2.53-3.46-3.95-6.6-3.95c-4.82,0-8.43,3.57-8.43,8.63
			c0,5,3.6,8.63,8.37,8.63c2.88,0,6.33-1.34,7.21-5.29h-7.67v-3.84h12.64V-266.85z"/>
		<path class="st1" d="M-2863.24-291.26h20.05v4.15h-15.05v6.1h14.53v3.81h-14.53v6.13h15.05v4.21h-20.05V-291.26z"/>
	</g>
	<g>
		<g id="XMLID_2_">
			<g>
				<path class="st1" d="M-3310.77-244.59c0.06,2.96-0.78,4.1-3.85,4.28c-13.57,0.83-27.12,2.12-40.7,2.75
					c-4.35,0.2-5.92,1.16-5.73,5.78c0.38,9.71,0.11,19.45,0.11,30.2c-12.83-9.25-25.01-17.68-36.77-26.65
					c-5.63-4.3-11.05-5.94-18.37-5.28c-26.54,2.41-53.16,3.89-79.76,5.68c-5.74,0.39-8.6-2.09-8.59-7.89
					c0.14-43.55,0.41-87.11,0.57-130.66c0.14-39.02,0.19-78.04,0.28-117.06c0.02-7.38,1.02-8.22,8.26-6.92
					c36.9,6.67,74.12,11.27,111.21,16.78c22.93,3.41,45.88,6.68,68.83,9.96c3.1,0.44,4.63,1.44,4.56,5.1
					c-0.11,5.23-0.16,23.36-0.18,37.54h-26.07c0.02-6.79,0.04-13.84,0.09-14.82c0.16-3.14-0.81-4.6-4-5.05
					c-28.16-4-56.29-8.09-84.44-12.15c-15.96-2.29-31.95-4.35-47.85-6.99c-4.22-0.7-4.34,0.75-4.35,3.99
					c-0.1,64.97-0.23,129.95-0.52,194.92c-0.02,4.3,1.1,5.65,5.47,5.33c22.97-1.7,45.95-3.15,68.93-4.69
					c20.27-1.36,40.52-2.93,60.8-3.98c4.75-0.24,6.12-1.53,6.01-6.29c-0.04-1.96-0.07-11.92-0.05-20.37h26.01
					c0.04,8.3,0.04,18,0.04,19.82C-3310.83-262.38-3310.94-253.49-3310.77-244.59z"/>
				<path id="XMLID_49_" class="st1" d="M-3529.93-251.55c0.64-67.31,1.07-134.63,1.08-201.95c0-9.36,0.28-17.1,11.22-19.49
					c0.12-0.03,0.19-0.3,0.67-1.09c-7.41-0.94-14.18-1.99-21-2.6c-5.43-0.48-7.02,1.26-7.02,6.87
					c-0.03,74.94-0.06,149.88-0.08,224.82c0,6.2,2.68,8.89,9.07,8.41c6.73-0.5,13.42-1.54,20.12-2.35c-2.2-1.63-4.48-2.71-6.89-3.15
					C-3528.21-243.04-3529.98-245.65-3529.93-251.55z"/>
			</g>
		</g>
	</g>
</g>
<linearGradient id="SVGID_1_" gradientUnits="userSpaceOnUse" x1="-3194.1228" y1="636" x2="-3194.1228" y2="-4.547474e-12">
	<stop  offset="0" style="stop-color:#1D92FF"/>
	<stop  offset="1" style="stop-color:#1D53FF"/>
</linearGradient>
<rect x="-3793.63" y="0" class="st2" width="1199.01" height="636"/>
<g>
	<g>
		<path class="st1" d="M-3383.75,309.26c8.77,3.89,13.85,10.26,13.85,20.13c0,13.65-9.67,23.62-34.78,23.62h-46.73v-83.7h47.23
			c24.41,0,31.79,10.26,31.79,21.72c0,9.07-4.58,13.75-11.36,16.94V309.26z M-3428.89,286.64v16.64h22.82
			c8.17,0,12.16-3.19,12.16-8.17c0-5.18-3.99-8.47-12.16-8.47H-3428.89z M-3405.17,335.57c8.27,0,12.56-4.18,12.56-9.77
			c0-5.48-4.28-9.17-12.56-9.17h-23.72v18.93H-3405.17z"/>
		<path class="st1" d="M-3359.44,311.16c0-26.51,18.63-44.64,46.54-44.64c27.8,0,46.44,18.14,46.44,44.64
			c0,26.41-18.63,44.64-46.44,44.64C-3340.8,355.8-3359.44,337.56-3359.44,311.16z M-3288.69,311.16
			c0-15.45-10.66-25.21-24.21-25.21c-13.65,0-24.21,9.77-24.21,25.21c0,15.35,10.56,25.21,24.21,25.21
			C-3299.35,336.37-3288.69,326.5-3288.69,311.16z"/>
		<path class="st1" d="M-3254.71,311.16c0-26.51,18.63-44.64,46.54-44.64c27.8,0,46.44,18.14,46.44,44.64
			c0,26.41-18.63,44.64-46.44,44.64C-3236.08,355.8-3254.71,337.56-3254.71,311.16z M-3183.96,311.16
			c0-15.45-10.66-25.21-24.21-25.21c-13.65,0-24.21,9.77-24.21,25.21c0,15.35,10.56,25.21,24.21,25.21
			C-3194.63,336.37-3183.96,326.5-3183.96,311.16z"/>
		<path class="st1" d="M-3086.21,353.01l-25.71-32.98h-1.49l-13.45,14.05v18.93h-22.42v-83.7h22.42v37.77h1.49l35.47-37.77h25.21
			l-34.58,37.17l36.27,46.54H-3086.21z"/>
		<path class="st1" d="M-3053.83,269.3h22.52v83.7h-22.52V269.3z"/>
		<path class="st1" d="M-3017.36,269.3h72.05v18.73h-49.52v16.94h46.93v16.64h-46.93v31.39h-22.52V269.3z"/>
		<path class="st1" d="M-2877.96,326.5v26.51h-22.42V326.4l-34.48-57.1h23.82l20.83,35.47h2.09l20.93-35.47h23.72L-2877.96,326.5z"
			/>
	</g>
	<g>
		<path class="st1" d="M-3290.7,372.97h5v24.41h-5V372.97z"/>
		<path class="st1" d="M-3281.29,372.97h5.84l12.41,17.49h0.52v-17.49h4.94v24.41h-5.78l-12.55-17.49h-0.44v17.49h-4.94V372.97z"/>
		<path class="st1" d="M-3253.8,390.03h4.53c0.26,2.53,2.3,4.1,6.48,4.15c4.01-0.03,6.31-1.45,6.31-3.63c0-1.98-1.69-2.82-4.77-3.37
			l-2.99-0.52c-4.59-0.84-8.86-2.27-8.86-7.29c0-4.56,3.86-7.21,10.4-7.21c6.13,0,10.4,2.35,10.52,8.08h-4.53
			c-0.41-2.41-2.24-4.04-6.1-4.04c-3.52,0-5.49,1.22-5.49,3.4c0,1.71,1.45,2.67,4.18,3.23l2.64,0.46c4.59,0.84,10,1.83,10,7.41
			c0,4.68-3.92,7.47-11.3,7.5C-3249.88,398.19-3253.77,395.55-3253.8,390.03z"/>
		<path class="st1" d="M-3227.62,397.38v-24.41h12.38c6.45,0,9.88,3.17,9.88,8.77c0,5.55-3.43,8.69-9.91,8.69h-7.35v6.94H-3227.62z
			 M-3222.63,386.19h7.12c3.14,0,5.08-1.48,5.08-4.45c0-3.02-1.95-4.53-5.11-4.53h-7.09V386.19z"/>
		<path class="st1" d="M-3201.3,372.97h5v24.41h-5V372.97z"/>
		<path class="st1" d="M-3169.14,397.38h-5.03l-4.27-7.58h-8.46v7.58h-5v-24.41h12.41c6.48,0,9.79,3.11,9.79,8.57
			c0,3.43-1.71,5.93-4.36,7.26L-3169.14,397.38z M-3186.89,377.22v8.66h7.18c3.23,0,5.06-1.45,5.06-4.33c0-2.88-1.83-4.33-5.06-4.33
			H-3186.89z"/>
		<path class="st1" d="M-3165.31,372.97h5v24.41h-5V372.97z"/>
		<path class="st1" d="M-3155.89,372.97h5.84l12.41,17.49h0.52v-17.49h4.94v24.41h-5.78l-12.55-17.49h-0.44v17.49h-4.94V372.97z"/>
		<path class="st1" d="M-3102.78,397.38h-3.4l-0.03-3.66c-1.69,2.64-4.79,4.47-9.12,4.47c-7.35,0-12.93-5.38-12.93-13.02
			c0-7.61,5.46-13.02,13.31-13.02c5.11,0,10.29,2.35,11.71,8.34h-5.06c-1.08-2.53-3.46-3.95-6.6-3.95c-4.82,0-8.43,3.57-8.43,8.63
			c0,5,3.6,8.63,8.37,8.63c2.88,0,6.33-1.34,7.21-5.29h-7.67v-3.84h12.64V397.38z"/>
		<path class="st1" d="M-3070.91,397.38l-8.48-10.49h-0.38l-4.5,4.62v5.87h-4.97v-24.41h4.97v12.41h0.44l11.86-12.41h5.78
			l-10.26,10.84l10.87,13.57H-3070.91z"/>
		<path class="st1" d="M-3062.49,372.97h5.84l12.41,17.49h0.52v-17.49h4.94v24.41h-5.78l-12.55-17.49h-0.44v17.49h-4.94V372.97z"/>
		<path class="st1" d="M-3034.63,385.41c0-7.5,5.35-12.78,12.99-12.78c7.73,0,13.07,5.29,13.07,12.78c0,7.5-5.35,12.79-13.07,12.79
			C-3029.28,398.19-3034.63,392.91-3034.63,385.41z M-3013.5,385.41c0-5-3.46-8.48-8.14-8.48c-4.59,0-8.14,3.49-8.14,8.48
			c0,5.03,3.54,8.48,8.14,8.48C-3016.96,393.89-3013.5,390.44-3013.5,385.41z"/>
		<path class="st1" d="M-3006.56,372.97h5.06l4.33,19.03h0.47l5.03-19.03h4.36l5.08,19.03h0.46l4.27-19.03h5.11l-5.72,24.41h-6.83
			l-4.3-16.62h-0.52l-4.3,16.62h-6.77L-3006.56,372.97z"/>
		<path class="st1" d="M-2968.65,372.97h5v20.19h14.41v4.21h-19.41V372.97z"/>
		<path class="st1" d="M-2945.14,372.97h20.05v4.15h-15.05v6.1h14.53v3.81h-14.53v6.13h15.05v4.21h-20.05V372.97z"/>
		<path class="st1" d="M-2896.85,385.18c0,6.94-3.66,12.2-12.96,12.2h-10.87v-24.41h10.87
			C-2900.51,372.97-2896.85,378.26-2896.85,385.18z M-2901.91,385.18c0-4.97-2.7-7.93-7.96-7.93h-5.72l-0.09,15.89h5.81
			C-2904.61,393.14-2901.91,390.18-2901.91,385.18z"/>
		<path class="st1" d="M-2867.74,397.38h-3.4l-0.03-3.66c-1.69,2.64-4.79,4.47-9.12,4.47c-7.35,0-12.93-5.38-12.93-13.02
			c0-7.61,5.46-13.02,13.31-13.02c5.11,0,10.29,2.35,11.71,8.34h-5.06c-1.08-2.53-3.46-3.95-6.6-3.95c-4.82,0-8.43,3.57-8.43,8.63
			c0,5,3.6,8.63,8.37,8.63c2.88,0,6.33-1.34,7.21-5.29h-7.67v-3.84h12.64V397.38z"/>
		<path class="st1" d="M-2863.24,372.97h20.05v4.15h-15.05v6.1h14.53v3.81h-14.53v6.13h15.05v4.21h-20.05V372.97z"/>
	</g>
	<g>
		<g id="XMLID_3_">
			<g>
				<path class="st1" d="M-3310.77,419.64c0.06,2.96-0.78,4.1-3.85,4.28c-13.57,0.83-27.12,2.12-40.7,2.75
					c-4.35,0.2-5.92,1.16-5.73,5.78c0.38,9.71,0.11,19.45,0.11,30.2c-12.83-9.25-25.01-17.68-36.77-26.65
					c-5.63-4.3-11.05-5.94-18.37-5.28c-26.54,2.41-53.16,3.89-79.76,5.68c-5.74,0.39-8.6-2.09-8.59-7.89
					c0.14-43.55,0.41-87.11,0.57-130.66c0.14-39.02,0.19-78.04,0.28-117.06c0.02-7.38,1.02-8.22,8.26-6.92
					c36.9,6.67,74.12,11.27,111.21,16.78c22.93,3.41,45.88,6.68,68.83,9.96c3.1,0.44,4.63,1.44,4.56,5.1
					c-0.11,5.23-0.16,23.36-0.18,37.54h-26.07c0.02-6.79,0.04-13.84,0.09-14.82c0.16-3.14-0.81-4.6-4-5.05
					c-28.16-4-56.29-8.09-84.44-12.15c-15.96-2.29-31.95-4.35-47.85-6.99c-4.22-0.7-4.34,0.75-4.35,3.99
					c-0.1,64.97-0.23,129.95-0.52,194.92c-0.02,4.3,1.1,5.65,5.47,5.33c22.97-1.7,45.95-3.15,68.93-4.69
					c20.27-1.36,40.52-2.93,60.8-3.98c4.75-0.24,6.12-1.53,6.01-6.29c-0.04-1.96-0.07-11.92-0.05-20.37h26.01
					c0.04,8.3,0.04,18,0.04,19.82C-3310.83,401.85-3310.94,410.75-3310.77,419.64z"/>
				<path id="XMLID_30_" class="st1" d="M-3529.93,412.68c0.64-67.31,1.07-134.63,1.08-201.95c0-9.36,0.28-17.1,11.22-19.49
					c0.12-0.03,0.19-0.3,0.67-1.09c-7.41-0.94-14.18-1.99-21-2.6c-5.43-0.48-7.02,1.26-7.02,6.87
					c-0.03,74.94-0.06,149.88-0.08,224.82c0,6.2,2.68,8.89,9.07,8.41c6.73-0.5,13.42-1.54,20.12-2.35c-2.2-1.63-4.48-2.71-6.89-3.15
					C-3528.21,421.19-3529.98,418.59-3529.93,412.68z"/>
			</g>
		</g>
	</g>
</g>
<rect x="-2564.74" y="0" class="st3" width="1199.01" height="636"/>
<g>
	<g>
		<path class="st1" d="M-2154.86,309.26c8.77,3.89,13.85,10.26,13.85,20.13c0,13.65-9.67,23.62-34.78,23.62h-46.73v-83.7h47.23
			c24.41,0,31.79,10.26,31.79,21.72c0,9.07-4.58,13.75-11.36,16.94V309.26z M-2200,286.64v16.64h22.82c8.17,0,12.16-3.19,12.16-8.17
			c0-5.18-3.99-8.47-12.16-8.47H-2200z M-2176.28,335.57c8.27,0,12.56-4.18,12.56-9.77c0-5.48-4.28-9.17-12.56-9.17H-2200v18.93
			H-2176.28z"/>
		<path class="st1" d="M-2130.55,311.16c0-26.51,18.63-44.64,46.54-44.64c27.8,0,46.44,18.14,46.44,44.64
			c0,26.41-18.63,44.64-46.44,44.64C-2111.92,355.8-2130.55,337.56-2130.55,311.16z M-2059.8,311.16
			c0-15.45-10.66-25.21-24.21-25.21c-13.65,0-24.21,9.77-24.21,25.21c0,15.35,10.56,25.21,24.21,25.21
			C-2070.46,336.37-2059.8,326.5-2059.8,311.16z"/>
		<path class="st1" d="M-2025.83,311.16c0-26.51,18.63-44.64,46.54-44.64c27.8,0,46.44,18.14,46.44,44.64
			c0,26.41-18.63,44.64-46.44,44.64C-2007.19,355.8-2025.83,337.56-2025.83,311.16z M-1955.08,311.16
			c0-15.45-10.66-25.21-24.21-25.21c-13.65,0-24.21,9.77-24.21,25.21c0,15.35,10.56,25.21,24.21,25.21
			C-1965.74,336.37-1955.08,326.5-1955.08,311.16z"/>
		<path class="st1" d="M-1857.33,353.01l-25.71-32.98h-1.49l-13.45,14.05v18.93h-22.42v-83.7h22.42v37.77h1.49l35.47-37.77h25.21
			l-34.58,37.17l36.27,46.54H-1857.33z"/>
		<path class="st1" d="M-1824.94,269.3h22.52v83.7h-22.52V269.3z"/>
		<path class="st1" d="M-1788.48,269.3h72.05v18.73h-49.52v16.94h46.93v16.64h-46.93v31.39h-22.52V269.3z"/>
		<path class="st1" d="M-1649.07,326.5v26.51h-22.42V326.4l-34.48-57.1h23.82l20.83,35.47h2.09l20.93-35.47h23.72L-1649.07,326.5z"
			/>
	</g>
	<g>
		<path class="st1" d="M-2061.81,372.97h5v24.41h-5V372.97z"/>
		<path class="st1" d="M-2052.4,372.97h5.84l12.41,17.49h0.52v-17.49h4.94v24.41h-5.78l-12.55-17.49h-0.44v17.49h-4.94V372.97z"/>
		<path class="st1" d="M-2024.91,390.03h4.53c0.26,2.53,2.3,4.1,6.48,4.15c4.01-0.03,6.31-1.45,6.31-3.63
			c0-1.98-1.69-2.82-4.77-3.37l-2.99-0.52c-4.59-0.84-8.86-2.27-8.86-7.29c0-4.56,3.86-7.21,10.4-7.21c6.13,0,10.4,2.35,10.52,8.08
			h-4.53c-0.41-2.41-2.24-4.04-6.1-4.04c-3.52,0-5.49,1.22-5.49,3.4c0,1.71,1.45,2.67,4.18,3.23l2.64,0.46
			c4.59,0.84,10,1.83,10,7.41c0,4.68-3.92,7.47-11.3,7.5C-2020.99,398.19-2024.88,395.55-2024.91,390.03z"/>
		<path class="st1" d="M-1998.74,397.38v-24.41h12.38c6.45,0,9.88,3.17,9.88,8.77c0,5.55-3.43,8.69-9.91,8.69h-7.35v6.94H-1998.74z
			 M-1993.74,386.19h7.12c3.14,0,5.08-1.48,5.08-4.45c0-3.02-1.95-4.53-5.11-4.53h-7.09V386.19z"/>
		<path class="st1" d="M-1972.41,372.97h5v24.41h-5V372.97z"/>
		<path class="st1" d="M-1940.25,397.38h-5.03l-4.27-7.58h-8.46v7.58h-5v-24.41h12.41c6.48,0,9.79,3.11,9.79,8.57
			c0,3.43-1.71,5.93-4.36,7.26L-1940.25,397.38z M-1958,377.22v8.66h7.18c3.23,0,5.06-1.45,5.06-4.33c0-2.88-1.83-4.33-5.06-4.33
			H-1958z"/>
		<path class="st1" d="M-1936.42,372.97h5v24.41h-5V372.97z"/>
		<path class="st1" d="M-1927.01,372.97h5.84l12.41,17.49h0.52v-17.49h4.94v24.41h-5.78l-12.55-17.49h-0.44v17.49h-4.94V372.97z"/>
		<path class="st1" d="M-1873.89,397.38h-3.4l-0.03-3.66c-1.69,2.64-4.79,4.47-9.12,4.47c-7.35,0-12.93-5.38-12.93-13.02
			c0-7.61,5.46-13.02,13.31-13.02c5.11,0,10.29,2.35,11.71,8.34h-5.06c-1.08-2.53-3.46-3.95-6.6-3.95c-4.82,0-8.43,3.57-8.43,8.63
			c0,5,3.6,8.63,8.37,8.63c2.88,0,6.33-1.34,7.21-5.29h-7.67v-3.84h12.64V397.38z"/>
		<path class="st1" d="M-1842.02,397.38l-8.48-10.49h-0.38l-4.5,4.62v5.87h-4.97v-24.41h4.97v12.41h0.44l11.86-12.41h5.78
			l-10.26,10.84l10.87,13.57H-1842.02z"/>
		<path class="st1" d="M-1833.6,372.97h5.84l12.41,17.49h0.52v-17.49h4.94v24.41h-5.78l-12.55-17.49h-0.44v17.49h-4.94V372.97z"/>
		<path class="st1" d="M-1805.74,385.41c0-7.5,5.35-12.78,12.99-12.78c7.73,0,13.07,5.29,13.07,12.78c0,7.5-5.35,12.79-13.07,12.79
			C-1800.39,398.19-1805.74,392.91-1805.74,385.41z M-1784.61,385.41c0-5-3.46-8.48-8.14-8.48c-4.59,0-8.14,3.49-8.14,8.48
			c0,5.03,3.54,8.48,8.14,8.48C-1788.07,393.89-1784.61,390.44-1784.61,385.41z"/>
		<path class="st1" d="M-1777.67,372.97h5.06l4.33,19.03h0.46l5.03-19.03h4.36l5.08,19.03h0.46l4.27-19.03h5.11l-5.72,24.41h-6.83
			l-4.3-16.62h-0.52l-4.3,16.62h-6.77L-1777.67,372.97z"/>
		<path class="st1" d="M-1739.76,372.97h5v20.19h14.41v4.21h-19.41V372.97z"/>
		<path class="st1" d="M-1716.25,372.97h20.05v4.15h-15.05v6.1h14.53v3.81h-14.53v6.13h15.05v4.21h-20.05V372.97z"/>
		<path class="st1" d="M-1667.97,385.18c0,6.94-3.66,12.2-12.96,12.2h-10.87v-24.41h10.87
			C-1671.63,372.97-1667.97,378.26-1667.97,385.18z M-1673.02,385.18c0-4.97-2.7-7.93-7.96-7.93h-5.72l-0.09,15.89h5.81
			C-1675.72,393.14-1673.02,390.18-1673.02,385.18z"/>
		<path class="st1" d="M-1638.85,397.38h-3.4l-0.03-3.66c-1.69,2.64-4.79,4.47-9.12,4.47c-7.35,0-12.93-5.38-12.93-13.02
			c0-7.61,5.46-13.02,13.31-13.02c5.11,0,10.29,2.35,11.71,8.34h-5.06c-1.08-2.53-3.46-3.95-6.6-3.95c-4.82,0-8.43,3.57-8.43,8.63
			c0,5,3.6,8.63,8.37,8.63c2.88,0,6.33-1.34,7.21-5.29h-7.67v-3.84h12.64V397.38z"/>
		<path class="st1" d="M-1634.35,372.97h20.05v4.15h-15.05v6.1h14.53v3.81h-14.53v6.13h15.05v4.21h-20.05V372.97z"/>
	</g>
	<g>
		<g id="XMLID_9_">
			<g>
				<path class="st1" d="M-2081.88,419.64c0.06,2.96-0.78,4.1-3.85,4.28c-13.57,0.83-27.12,2.12-40.7,2.75
					c-4.35,0.2-5.92,1.16-5.73,5.78c0.38,9.71,0.11,19.45,0.11,30.2c-12.83-9.25-25.01-17.68-36.77-26.65
					c-5.63-4.3-11.05-5.94-18.37-5.28c-26.54,2.41-53.16,3.89-79.76,5.68c-5.74,0.39-8.6-2.09-8.59-7.89
					c0.14-43.55,0.41-87.11,0.57-130.66c0.14-39.02,0.19-78.04,0.28-117.06c0.02-7.38,1.02-8.22,8.26-6.92
					c36.9,6.67,74.12,11.27,111.21,16.78c22.93,3.41,45.88,6.68,68.83,9.96c3.1,0.44,4.63,1.44,4.56,5.1
					c-0.11,5.23-0.16,23.36-0.18,37.54h-26.07c0.02-6.79,0.04-13.84,0.09-14.82c0.16-3.14-0.81-4.6-4-5.05
					c-28.16-4-56.29-8.09-84.44-12.15c-15.96-2.29-31.95-4.35-47.85-6.99c-4.22-0.7-4.34,0.75-4.35,3.99
					c-0.1,64.97-0.23,129.95-0.52,194.92c-0.02,4.3,1.1,5.65,5.47,5.33c22.97-1.7,45.95-3.15,68.93-4.69
					c20.27-1.36,40.52-2.93,60.8-3.98c4.75-0.24,6.12-1.53,6.01-6.29c-0.04-1.96-0.07-11.92-0.05-20.37h26.01
					c0.04,8.3,0.04,18,0.04,19.82C-2081.94,401.85-2082.05,410.75-2081.88,419.64z"/>
				<path id="XMLID_25_" class="st1" d="M-2301.04,412.68c0.64-67.31,1.07-134.63,1.08-201.95c0-9.36,0.28-17.1,11.22-19.49
					c0.12-0.03,0.19-0.3,0.67-1.09c-7.41-0.94-14.18-1.99-21-2.6c-5.43-0.48-7.02,1.26-7.02,6.87
					c-0.03,74.94-0.06,149.88-0.08,224.82c0,6.2,2.68,8.89,9.07,8.41c6.73-0.5,13.42-1.54,20.12-2.35c-2.2-1.63-4.48-2.71-6.89-3.15
					C-2299.32,421.19-2301.1,418.59-2301.04,412.68z"/>
			</g>
		</g>
	</g>
</g>
<rect x="-2564.74" y="-664.24" class="st1" width="1199.01" height="636"/>
<g>
	<g>
		<path class="st0" d="M-2154.86-354.97c8.77,3.89,13.85,10.26,13.85,20.13c0,13.65-9.67,23.62-34.78,23.62h-46.73v-83.7h47.23
			c24.41,0,31.79,10.26,31.79,21.72c0,9.07-4.58,13.75-11.36,16.94V-354.97z M-2200-377.59v16.64h22.82
			c8.17,0,12.16-3.19,12.16-8.17c0-5.18-3.99-8.47-12.16-8.47H-2200z M-2176.28-328.67c8.27,0,12.56-4.18,12.56-9.77
			c0-5.48-4.28-9.17-12.56-9.17H-2200v18.93H-2176.28z"/>
		<path class="st0" d="M-2130.55-353.08c0-26.51,18.63-44.64,46.54-44.64c27.8,0,46.44,18.14,46.44,44.64
			c0,26.41-18.63,44.64-46.44,44.64C-2111.92-308.44-2130.55-326.67-2130.55-353.08z M-2059.8-353.08
			c0-15.45-10.66-25.21-24.21-25.21c-13.65,0-24.21,9.77-24.21,25.21c0,15.35,10.56,25.21,24.21,25.21
			C-2070.46-327.87-2059.8-337.73-2059.8-353.08z"/>
		<path class="st0" d="M-2025.83-353.08c0-26.51,18.63-44.64,46.54-44.64c27.8,0,46.44,18.14,46.44,44.64
			c0,26.41-18.63,44.64-46.44,44.64C-2007.19-308.44-2025.83-326.67-2025.83-353.08z M-1955.08-353.08
			c0-15.45-10.66-25.21-24.21-25.21c-13.65,0-24.21,9.77-24.21,25.21c0,15.35,10.56,25.21,24.21,25.21
			C-1965.74-327.87-1955.08-337.73-1955.08-353.08z"/>
		<path class="st0" d="M-1857.33-311.23l-25.71-32.98h-1.49l-13.45,14.05v18.93h-22.42v-83.7h22.42v37.77h1.49l35.47-37.77h25.21
			l-34.58,37.17l36.27,46.54H-1857.33z"/>
		<path class="st0" d="M-1824.94-394.93h22.52v83.7h-22.52V-394.93z"/>
		<path class="st0" d="M-1788.48-394.93h72.05v18.73h-49.52v16.94h46.93v16.64h-46.93v31.39h-22.52V-394.93z"/>
		<path class="st0" d="M-1649.07-337.73v26.51h-22.42v-26.61l-34.48-57.1h23.82l20.83,35.47h2.09l20.93-35.47h23.72L-1649.07-337.73
			z"/>
	</g>
	<g>
		<path class="st0" d="M-2061.81-291.26h5v24.41h-5V-291.26z"/>
		<path class="st0" d="M-2052.4-291.26h5.84l12.41,17.49h0.52v-17.49h4.94v24.41h-5.78l-12.55-17.49h-0.44v17.49h-4.94V-291.26z"/>
		<path class="st0" d="M-2024.91-274.21h4.53c0.26,2.53,2.3,4.1,6.48,4.15c4.01-0.03,6.31-1.45,6.31-3.63
			c0-1.98-1.69-2.82-4.77-3.37l-2.99-0.52c-4.59-0.84-8.86-2.27-8.86-7.29c0-4.56,3.86-7.21,10.4-7.21c6.13,0,10.4,2.35,10.52,8.08
			h-4.53c-0.41-2.41-2.24-4.04-6.1-4.04c-3.52,0-5.49,1.22-5.49,3.4c0,1.71,1.45,2.67,4.18,3.23l2.64,0.46
			c4.59,0.84,10,1.83,10,7.41c0,4.68-3.92,7.47-11.3,7.5C-2020.99-266.04-2024.88-268.69-2024.91-274.21z"/>
		<path class="st0" d="M-1998.74-266.85v-24.41h12.38c6.45,0,9.88,3.17,9.88,8.77c0,5.55-3.43,8.69-9.91,8.69h-7.35v6.94H-1998.74z
			 M-1993.74-278.04h7.12c3.14,0,5.08-1.48,5.08-4.45c0-3.02-1.95-4.53-5.11-4.53h-7.09V-278.04z"/>
		<path class="st0" d="M-1972.41-291.26h5v24.41h-5V-291.26z"/>
		<path class="st0" d="M-1940.25-266.85h-5.03l-4.27-7.58h-8.46v7.58h-5v-24.41h12.41c6.48,0,9.79,3.11,9.79,8.57
			c0,3.43-1.71,5.93-4.36,7.26L-1940.25-266.85z M-1958-287.02v8.66h7.18c3.23,0,5.06-1.45,5.06-4.33c0-2.88-1.83-4.33-5.06-4.33
			H-1958z"/>
		<path class="st0" d="M-1936.42-291.26h5v24.41h-5V-291.26z"/>
		<path class="st0" d="M-1927.01-291.26h5.84l12.41,17.49h0.52v-17.49h4.94v24.41h-5.78l-12.55-17.49h-0.44v17.49h-4.94V-291.26z"/>
		<path class="st0" d="M-1873.89-266.85h-3.4l-0.03-3.66c-1.69,2.64-4.79,4.47-9.12,4.47c-7.35,0-12.93-5.38-12.93-13.02
			c0-7.61,5.46-13.02,13.31-13.02c5.11,0,10.29,2.35,11.71,8.34h-5.06c-1.08-2.53-3.46-3.95-6.6-3.95c-4.82,0-8.43,3.57-8.43,8.63
			c0,5,3.6,8.63,8.37,8.63c2.88,0,6.33-1.34,7.21-5.29h-7.67v-3.84h12.64V-266.85z"/>
		<path class="st0" d="M-1842.02-266.85l-8.48-10.49h-0.38l-4.5,4.62v5.87h-4.97v-24.41h4.97v12.41h0.44l11.86-12.41h5.78
			l-10.26,10.84l10.87,13.57H-1842.02z"/>
		<path class="st0" d="M-1833.6-291.26h5.84l12.41,17.49h0.52v-17.49h4.94v24.41h-5.78l-12.55-17.49h-0.44v17.49h-4.94V-291.26z"/>
		<path class="st0" d="M-1805.74-278.83c0-7.5,5.35-12.78,12.99-12.78c7.73,0,13.07,5.29,13.07,12.78c0,7.5-5.35,12.79-13.07,12.79
			C-1800.39-266.04-1805.74-271.33-1805.74-278.83z M-1784.61-278.83c0-5-3.46-8.48-8.14-8.48c-4.59,0-8.14,3.49-8.14,8.48
			c0,5.03,3.54,8.48,8.14,8.48C-1788.07-270.34-1784.61-273.8-1784.61-278.83z"/>
		<path class="st0" d="M-1777.67-291.26h5.06l4.33,19.03h0.46l5.03-19.03h4.36l5.08,19.03h0.46l4.27-19.03h5.11l-5.72,24.41h-6.83
			l-4.3-16.62h-0.52l-4.3,16.62h-6.77L-1777.67-291.26z"/>
		<path class="st0" d="M-1739.76-291.26h5v20.19h14.41v4.21h-19.41V-291.26z"/>
		<path class="st0" d="M-1716.25-291.26h20.05v4.15h-15.05v6.1h14.53v3.81h-14.53v6.13h15.05v4.21h-20.05V-291.26z"/>
		<path class="st0" d="M-1667.97-279.06c0,6.94-3.66,12.2-12.96,12.2h-10.87v-24.41h10.87
			C-1671.63-291.26-1667.97-285.97-1667.97-279.06z M-1673.02-279.06c0-4.97-2.7-7.93-7.96-7.93h-5.72l-0.09,15.89h5.81
			C-1675.72-271.1-1673.02-274.06-1673.02-279.06z"/>
		<path class="st0" d="M-1638.85-266.85h-3.4l-0.03-3.66c-1.69,2.64-4.79,4.47-9.12,4.47c-7.35,0-12.93-5.38-12.93-13.02
			c0-7.61,5.46-13.02,13.31-13.02c5.11,0,10.29,2.35,11.71,8.34h-5.06c-1.08-2.53-3.46-3.95-6.6-3.95c-4.82,0-8.43,3.57-8.43,8.63
			c0,5,3.6,8.63,8.37,8.63c2.88,0,6.33-1.34,7.21-5.29h-7.67v-3.84h12.64V-266.85z"/>
		<path class="st0" d="M-1634.35-291.26h20.05v4.15h-15.05v6.1h14.53v3.81h-14.53v6.13h15.05v4.21h-20.05V-291.26z"/>
	</g>
	<g>
		<g id="XMLID_1_">
			<g>
				<path class="st0" d="M-2081.88-244.59c0.06,2.96-0.78,4.1-3.85,4.28c-13.57,0.83-27.12,2.12-40.7,2.75
					c-4.35,0.2-5.92,1.16-5.73,5.78c0.38,9.71,0.11,19.45,0.11,30.2c-12.83-9.25-25.01-17.68-36.77-26.65
					c-5.63-4.3-11.05-5.94-18.37-5.28c-26.54,2.41-53.16,3.89-79.76,5.68c-5.74,0.39-8.6-2.09-8.59-7.89
					c0.14-43.55,0.41-87.11,0.57-130.66c0.14-39.02,0.19-78.04,0.28-117.06c0.02-7.38,1.02-8.22,8.26-6.92
					c36.9,6.67,74.12,11.27,111.21,16.78c22.93,3.41,45.88,6.68,68.83,9.96c3.1,0.44,4.63,1.44,4.56,5.1
					c-0.11,5.23-0.16,23.36-0.18,37.54h-26.07c0.02-6.79,0.04-13.84,0.09-14.82c0.16-3.14-0.81-4.6-4-5.05
					c-28.16-4-56.29-8.09-84.44-12.15c-15.96-2.29-31.95-4.35-47.85-6.99c-4.22-0.7-4.34,0.75-4.35,3.99
					c-0.1,64.97-0.23,129.95-0.52,194.92c-0.02,4.3,1.1,5.65,5.47,5.33c22.97-1.7,45.95-3.15,68.93-4.69
					c20.27-1.36,40.52-2.93,60.8-3.98c4.75-0.24,6.12-1.53,6.01-6.29c-0.04-1.96-0.07-11.92-0.05-20.37h26.01
					c0.04,8.3,0.04,18,0.04,19.82C-2081.94-262.38-2082.05-253.49-2081.88-244.59z"/>
				<path id="XMLID_23_" class="st0" d="M-2301.04-251.55c0.64-67.31,1.07-134.63,1.08-201.95c0-9.36,0.28-17.1,11.22-19.49
					c0.12-0.03,0.19-0.3,0.67-1.09c-7.41-0.94-14.18-1.99-21-2.6c-5.43-0.48-7.02,1.26-7.02,6.87
					c-0.03,74.94-0.06,149.88-0.08,224.82c0,6.2,2.68,8.89,9.07,8.41c6.73-0.5,13.42-1.54,20.12-2.35c-2.2-1.63-4.48-2.71-6.89-3.15
					C-2299.32-243.04-2301.1-245.65-2301.04-251.55z"/>
			</g>
		</g>
	</g>
</g>
<rect x="-6358.36" y="-650.12" class="st4" width="1199.01" height="636"/>
<g>
	<g>
		<path class="st1" d="M-5948.49-340.86c8.77,3.89,13.85,10.26,13.85,20.13c0,13.65-9.67,23.62-34.78,23.62h-46.74v-83.7h47.23
			c24.41,0,31.79,10.26,31.79,21.72c0,9.07-4.58,13.75-11.36,16.94V-340.86z M-5993.63-363.48v16.64h22.82
			c8.17,0,12.16-3.19,12.16-8.17c0-5.18-3.99-8.47-12.16-8.47H-5993.63z M-5969.91-314.55c8.27,0,12.56-4.18,12.56-9.77
			c0-5.48-4.28-9.17-12.56-9.17h-23.72v18.93H-5969.91z"/>
		<path class="st1" d="M-5924.18-338.96c0-26.51,18.63-44.64,46.54-44.64c27.8,0,46.44,18.14,46.44,44.64
			c0,26.41-18.63,44.64-46.44,44.64C-5905.54-294.32-5924.18-312.56-5924.18-338.96z M-5853.43-338.96
			c0-15.45-10.66-25.21-24.21-25.21c-13.65,0-24.21,9.77-24.21,25.21c0,15.35,10.56,25.21,24.21,25.21
			C-5864.09-313.75-5853.43-323.62-5853.43-338.96z"/>
		<path class="st1" d="M-5819.45-338.96c0-26.51,18.63-44.64,46.54-44.64c27.8,0,46.44,18.14,46.44,44.64
			c0,26.41-18.63,44.64-46.44,44.64C-5800.82-294.32-5819.45-312.56-5819.45-338.96z M-5748.7-338.96
			c0-15.45-10.66-25.21-24.21-25.21c-13.65,0-24.21,9.77-24.21,25.21c0,15.35,10.56,25.21,24.21,25.21
			C-5759.36-313.75-5748.7-323.62-5748.7-338.96z"/>
		<path class="st1" d="M-5650.95-297.11l-25.71-32.98h-1.49l-13.45,14.05v18.93h-22.42v-83.7h22.42v37.77h1.49l35.47-37.77h25.21
			l-34.58,37.17l36.27,46.54H-5650.95z"/>
		<path class="st1" d="M-5618.57-380.81h22.52v83.7h-22.52V-380.81z"/>
		<path class="st1" d="M-5582.1-380.81h72.05v18.73h-49.52v16.94h46.93v16.64h-46.93v31.39h-22.52V-380.81z"/>
		<path class="st1" d="M-5442.7-323.62v26.51h-22.42v-26.61l-34.48-57.1h23.82l20.83,35.47h2.09l20.93-35.47h23.72L-5442.7-323.62z"
			/>
	</g>
	<g>
		<path class="st1" d="M-5855.44-277.14h5v24.41h-5V-277.14z"/>
		<path class="st1" d="M-5846.02-277.14h5.84l12.41,17.49h0.52v-17.49h4.94v24.41h-5.78l-12.55-17.49h-0.44v17.49h-4.94V-277.14z"/>
		<path class="st1" d="M-5818.54-260.09h4.53c0.26,2.53,2.3,4.1,6.48,4.15c4.01-0.03,6.31-1.45,6.31-3.63
			c0-1.98-1.69-2.82-4.76-3.37l-2.99-0.52c-4.59-0.84-8.86-2.27-8.86-7.29c0-4.56,3.86-7.21,10.4-7.21c6.13,0,10.4,2.35,10.52,8.08
			h-4.53c-0.41-2.41-2.24-4.04-6.1-4.04c-3.52,0-5.49,1.22-5.49,3.4c0,1.71,1.45,2.67,4.18,3.23l2.64,0.46
			c4.59,0.84,10,1.83,10,7.41c0,4.68-3.92,7.47-11.3,7.5C-5814.62-251.92-5818.51-254.57-5818.54-260.09z"/>
		<path class="st1" d="M-5792.36-252.74v-24.41h12.38c6.45,0,9.88,3.17,9.88,8.77c0,5.55-3.43,8.69-9.91,8.69h-7.35v6.94H-5792.36z
			 M-5787.36-263.92h7.12c3.14,0,5.08-1.48,5.08-4.45c0-3.02-1.95-4.53-5.11-4.53h-7.09V-263.92z"/>
		<path class="st1" d="M-5766.04-277.14h5v24.41h-5V-277.14z"/>
		<path class="st1" d="M-5733.88-252.74h-5.03l-4.27-7.58h-8.46v7.58h-5v-24.41h12.41c6.48,0,9.79,3.11,9.79,8.57
			c0,3.43-1.71,5.93-4.36,7.26L-5733.88-252.74z M-5751.63-272.9v8.66h7.18c3.23,0,5.06-1.45,5.06-4.33c0-2.88-1.83-4.33-5.06-4.33
			H-5751.63z"/>
		<path class="st1" d="M-5730.04-277.14h5v24.41h-5V-277.14z"/>
		<path class="st1" d="M-5720.63-277.14h5.84l12.41,17.49h0.52v-17.49h4.94v24.41h-5.78l-12.55-17.49h-0.44v17.49h-4.94V-277.14z"/>
		<path class="st1" d="M-5667.52-252.74h-3.4l-0.03-3.66c-1.69,2.64-4.79,4.47-9.12,4.47c-7.35,0-12.93-5.38-12.93-13.02
			c0-7.61,5.46-13.02,13.31-13.02c5.11,0,10.29,2.35,11.71,8.34h-5.06c-1.08-2.53-3.46-3.95-6.6-3.95c-4.82,0-8.43,3.57-8.43,8.63
			c0,5,3.6,8.63,8.37,8.63c2.88,0,6.33-1.34,7.21-5.29h-7.67v-3.84h12.64V-252.74z"/>
		<path class="st1" d="M-5635.65-252.74l-8.48-10.49h-0.38l-4.5,4.62v5.87h-4.97v-24.41h4.97v12.41h0.44l11.86-12.41h5.78
			l-10.26,10.84l10.87,13.57H-5635.65z"/>
		<path class="st1" d="M-5627.23-277.14h5.84l12.41,17.49h0.52v-17.49h4.94v24.41h-5.78l-12.55-17.49h-0.44v17.49h-4.94V-277.14z"/>
		<path class="st1" d="M-5599.36-264.71c0-7.5,5.35-12.78,12.99-12.78c7.73,0,13.07,5.29,13.07,12.78c0,7.5-5.35,12.79-13.07,12.79
			C-5594.02-251.92-5599.36-257.21-5599.36-264.71z M-5578.24-264.71c0-5-3.46-8.48-8.14-8.48c-4.59,0-8.14,3.49-8.14,8.48
			c0,5.03,3.54,8.48,8.14,8.48C-5581.7-256.22-5578.24-259.68-5578.24-264.71z"/>
		<path class="st1" d="M-5571.3-277.14h5.06l4.33,19.03h0.46l5.03-19.03h4.36l5.08,19.03h0.46l4.27-19.03h5.11l-5.72,24.41h-6.83
			l-4.3-16.62h-0.52l-4.3,16.62h-6.77L-5571.3-277.14z"/>
		<path class="st1" d="M-5533.38-277.14h5v20.19h14.41v4.21h-19.41V-277.14z"/>
		<path class="st1" d="M-5509.88-277.14h20.05v4.15h-15.05v6.1h14.53v3.81h-14.53v6.13h15.05v4.21h-20.05V-277.14z"/>
		<path class="st1" d="M-5461.59-264.94c0,6.94-3.66,12.2-12.96,12.2h-10.87v-24.41h10.87
			C-5465.25-277.14-5461.59-271.86-5461.59-264.94z M-5466.65-264.94c0-4.97-2.7-7.93-7.96-7.93h-5.72l-0.09,15.89h5.81
			C-5469.35-256.98-5466.65-259.94-5466.65-264.94z"/>
		<path class="st1" d="M-5432.48-252.74h-3.4l-0.03-3.66c-1.69,2.64-4.79,4.47-9.12,4.47c-7.35,0-12.93-5.38-12.93-13.02
			c0-7.61,5.46-13.02,13.31-13.02c5.11,0,10.29,2.35,11.71,8.34h-5.06c-1.08-2.53-3.46-3.95-6.6-3.95c-4.82,0-8.43,3.57-8.43,8.63
			c0,5,3.6,8.63,8.37,8.63c2.88,0,6.33-1.34,7.21-5.29h-7.67v-3.84h12.64V-252.74z"/>
		<path class="st1" d="M-5427.98-277.14h20.05v4.15h-15.05v6.1h14.53v3.81h-14.53v6.13h15.05v4.21h-20.05V-277.14z"/>
	</g>
	<g>
		<g id="XMLID_45_">
			<g>
				<path class="st1" d="M-5875.51-230.48c0.06,2.96-0.78,4.1-3.85,4.28c-13.57,0.83-27.12,2.12-40.7,2.75
					c-4.35,0.2-5.92,1.16-5.73,5.78c0.38,9.71,0.11,19.45,0.11,30.2c-12.83-9.25-25.01-17.68-36.77-26.65
					c-5.63-4.3-11.05-5.94-18.37-5.28c-26.54,2.41-53.16,3.89-79.76,5.68c-5.74,0.39-8.6-2.09-8.59-7.89
					c0.14-43.55,0.41-87.11,0.57-130.66c0.14-39.02,0.19-78.04,0.28-117.06c0.02-7.38,1.02-8.22,8.26-6.92
					c36.9,6.67,74.12,11.27,111.21,16.78c22.93,3.41,45.88,6.68,68.83,9.96c3.1,0.44,4.63,1.44,4.56,5.1
					c-0.11,5.23-0.16,23.36-0.17,37.54h-26.07c0.02-6.79,0.04-13.84,0.09-14.82c0.16-3.14-0.81-4.6-4-5.05
					c-28.16-4-56.29-8.09-84.44-12.15c-15.96-2.29-31.95-4.35-47.85-6.99c-4.22-0.7-4.34,0.75-4.35,3.99
					c-0.1,64.97-0.23,129.95-0.52,194.92c-0.02,4.3,1.1,5.65,5.47,5.33c22.97-1.7,45.95-3.15,68.93-4.69
					c20.27-1.36,40.52-2.93,60.8-3.98c4.75-0.24,6.12-1.53,6.01-6.29c-0.04-1.96-0.08-11.92-0.05-20.37h26.01
					c0.04,8.3,0.04,18,0.04,19.82C-5875.57-248.27-5875.68-239.37-5875.51-230.48z"/>
				<path id="XMLID_47_" class="st1" d="M-6094.67-237.43c0.64-67.31,1.07-134.63,1.08-201.95c0-9.36,0.28-17.1,11.22-19.49
					c0.12-0.03,0.19-0.3,0.67-1.09c-7.41-0.94-14.18-1.99-21-2.6c-5.43-0.48-7.02,1.26-7.02,6.87
					c-0.03,74.94-0.06,149.88-0.08,224.82c0,6.2,2.68,8.89,9.07,8.41c6.73-0.5,13.42-1.54,20.12-2.35c-2.2-1.63-4.48-2.71-6.89-3.15
					C-6092.95-228.93-6094.72-231.53-6094.67-237.43z"/>
			</g>
		</g>
	</g>
</g>
<linearGradient id="SVGID_2_" gradientUnits="userSpaceOnUse" x1="-5758.8618" y1="650.1179" x2="-5758.8618" y2="14.1179">
	<stop  offset="0" style="stop-color:#385F6E"/>
	<stop  offset="1" style="stop-color:#00384B"/>
</linearGradient>
<rect x="-6358.36" y="14.12" class="st5" width="1199.01" height="636"/>
<g>
	<g>
		<path class="st1" d="M-5948.49,323.38c8.77,3.89,13.85,10.26,13.85,20.13c0,13.65-9.67,23.62-34.78,23.62h-46.74v-83.7h47.23
			c24.41,0,31.79,10.26,31.79,21.72c0,9.07-4.58,13.75-11.36,16.94V323.38z M-5993.63,300.76v16.64h22.82
			c8.17,0,12.16-3.19,12.16-8.17c0-5.18-3.99-8.47-12.16-8.47H-5993.63z M-5969.91,349.69c8.27,0,12.56-4.18,12.56-9.77
			c0-5.48-4.28-9.17-12.56-9.17h-23.72v18.93H-5969.91z"/>
		<path class="st1" d="M-5924.18,325.27c0-26.51,18.63-44.64,46.54-44.64c27.8,0,46.44,18.14,46.44,44.64
			c0,26.41-18.63,44.64-46.44,44.64C-5905.54,369.92-5924.18,351.68-5924.18,325.27z M-5853.43,325.27
			c0-15.45-10.66-25.21-24.21-25.21c-13.65,0-24.21,9.77-24.21,25.21c0,15.35,10.56,25.21,24.21,25.21
			C-5864.09,350.48-5853.43,340.62-5853.43,325.27z"/>
		<path class="st1" d="M-5819.45,325.27c0-26.51,18.63-44.64,46.54-44.64c27.8,0,46.44,18.14,46.44,44.64
			c0,26.41-18.63,44.64-46.44,44.64C-5800.82,369.92-5819.45,351.68-5819.45,325.27z M-5748.7,325.27
			c0-15.45-10.66-25.21-24.21-25.21c-13.65,0-24.21,9.77-24.21,25.21c0,15.35,10.56,25.21,24.21,25.21
			C-5759.36,350.48-5748.7,340.62-5748.7,325.27z"/>
		<path class="st1" d="M-5650.95,367.13l-25.71-32.98h-1.49l-13.45,14.05v18.93h-22.42v-83.7h22.42v37.77h1.49l35.47-37.77h25.21
			l-34.58,37.17l36.27,46.54H-5650.95z"/>
		<path class="st1" d="M-5618.57,283.42h22.52v83.7h-22.52V283.42z"/>
		<path class="st1" d="M-5582.1,283.42h72.05v18.73h-49.52v16.94h46.93v16.64h-46.93v31.39h-22.52V283.42z"/>
		<path class="st1" d="M-5442.7,340.62v26.51h-22.42v-26.61l-34.48-57.1h23.82l20.83,35.47h2.09l20.93-35.47h23.72L-5442.7,340.62z"
			/>
	</g>
	<g>
		<path class="st1" d="M-5855.44,387.09h5v24.41h-5V387.09z"/>
		<path class="st1" d="M-5846.02,387.09h5.84l12.41,17.49h0.52v-17.49h4.94v24.41h-5.78l-12.55-17.49h-0.44v17.49h-4.94V387.09z"/>
		<path class="st1" d="M-5818.54,404.15h4.53c0.26,2.53,2.3,4.1,6.48,4.15c4.01-0.03,6.31-1.45,6.31-3.63
			c0-1.98-1.69-2.82-4.76-3.37l-2.99-0.52c-4.59-0.84-8.86-2.27-8.86-7.29c0-4.56,3.86-7.21,10.4-7.21c6.13,0,10.4,2.35,10.52,8.08
			h-4.53c-0.41-2.41-2.24-4.04-6.1-4.04c-3.52,0-5.49,1.22-5.49,3.4c0,1.71,1.45,2.67,4.18,3.23l2.64,0.46
			c4.59,0.84,10,1.83,10,7.41c0,4.68-3.92,7.47-11.3,7.5C-5814.62,412.31-5818.51,409.67-5818.54,404.15z"/>
		<path class="st1" d="M-5792.36,411.5v-24.41h12.38c6.45,0,9.88,3.17,9.88,8.77c0,5.55-3.43,8.69-9.91,8.69h-7.35v6.94H-5792.36z
			 M-5787.36,400.31h7.12c3.14,0,5.08-1.48,5.08-4.45c0-3.02-1.95-4.53-5.11-4.53h-7.09V400.31z"/>
		<path class="st1" d="M-5766.04,387.09h5v24.41h-5V387.09z"/>
		<path class="st1" d="M-5733.88,411.5h-5.03l-4.27-7.58h-8.46v7.58h-5v-24.41h12.41c6.48,0,9.79,3.11,9.79,8.57
			c0,3.43-1.71,5.93-4.36,7.26L-5733.88,411.5z M-5751.63,391.33v8.66h7.18c3.23,0,5.06-1.45,5.06-4.33c0-2.88-1.83-4.33-5.06-4.33
			H-5751.63z"/>
		<path class="st1" d="M-5730.04,387.09h5v24.41h-5V387.09z"/>
		<path class="st1" d="M-5720.63,387.09h5.84l12.41,17.49h0.52v-17.49h4.94v24.41h-5.78l-12.55-17.49h-0.44v17.49h-4.94V387.09z"/>
		<path class="st1" d="M-5667.52,411.5h-3.4l-0.03-3.66c-1.69,2.64-4.79,4.47-9.12,4.47c-7.35,0-12.93-5.38-12.93-13.02
			c0-7.61,5.46-13.02,13.31-13.02c5.11,0,10.29,2.35,11.71,8.34h-5.06c-1.08-2.53-3.46-3.95-6.6-3.95c-4.82,0-8.43,3.57-8.43,8.63
			c0,5,3.6,8.63,8.37,8.63c2.88,0,6.33-1.34,7.21-5.29h-7.67v-3.84h12.64V411.5z"/>
		<path class="st1" d="M-5635.65,411.5l-8.48-10.49h-0.38l-4.5,4.62v5.87h-4.97v-24.41h4.97v12.41h0.44l11.86-12.41h5.78
			l-10.26,10.84l10.87,13.57H-5635.65z"/>
		<path class="st1" d="M-5627.23,387.09h5.84l12.41,17.49h0.52v-17.49h4.94v24.41h-5.78l-12.55-17.49h-0.44v17.49h-4.94V387.09z"/>
		<path class="st1" d="M-5599.36,399.53c0-7.5,5.35-12.78,12.99-12.78c7.73,0,13.07,5.29,13.07,12.78c0,7.5-5.35,12.79-13.07,12.79
			C-5594.02,412.31-5599.36,407.02-5599.36,399.53z M-5578.24,399.53c0-5-3.46-8.48-8.14-8.48c-4.59,0-8.14,3.49-8.14,8.48
			c0,5.03,3.54,8.48,8.14,8.48C-5581.7,408.01-5578.24,404.55-5578.24,399.53z"/>
		<path class="st1" d="M-5571.3,387.09h5.06l4.33,19.03h0.46l5.03-19.03h4.36l5.08,19.03h0.46l4.27-19.03h5.11l-5.72,24.41h-6.83
			l-4.3-16.62h-0.52l-4.3,16.62h-6.77L-5571.3,387.09z"/>
		<path class="st1" d="M-5533.38,387.09h5v20.19h14.41v4.21h-19.41V387.09z"/>
		<path class="st1" d="M-5509.88,387.09h20.05v4.15h-15.05v6.1h14.53v3.81h-14.53v6.13h15.05v4.21h-20.05V387.09z"/>
		<path class="st1" d="M-5461.59,399.3c0,6.94-3.66,12.2-12.96,12.2h-10.87v-24.41h10.87
			C-5465.25,387.09-5461.59,392.38-5461.59,399.3z M-5466.65,399.3c0-4.97-2.7-7.93-7.96-7.93h-5.72l-0.09,15.89h5.81
			C-5469.35,407.26-5466.65,404.29-5466.65,399.3z"/>
		<path class="st1" d="M-5432.48,411.5h-3.4l-0.03-3.66c-1.69,2.64-4.79,4.47-9.12,4.47c-7.35,0-12.93-5.38-12.93-13.02
			c0-7.61,5.46-13.02,13.31-13.02c5.11,0,10.29,2.35,11.71,8.34h-5.06c-1.08-2.53-3.46-3.95-6.6-3.95c-4.82,0-8.43,3.57-8.43,8.63
			c0,5,3.6,8.63,8.37,8.63c2.88,0,6.33-1.34,7.21-5.29h-7.67v-3.84h12.64V411.5z"/>
		<path class="st1" d="M-5427.98,387.09h20.05v4.15h-15.05v6.1h14.53v3.81h-14.53v6.13h15.05v4.21h-20.05V387.09z"/>
	</g>
	<g>
		<g id="XMLID_40_">
			<g>
				<path class="st1" d="M-5875.51,433.76c0.06,2.96-0.78,4.1-3.85,4.28c-13.57,0.83-27.12,2.12-40.7,2.75
					c-4.35,0.2-5.92,1.16-5.73,5.78c0.38,9.71,0.11,19.45,0.11,30.2c-12.83-9.25-25.01-17.68-36.77-26.65
					c-5.63-4.3-11.05-5.94-18.37-5.28c-26.54,2.41-53.16,3.89-79.76,5.68c-5.74,0.39-8.6-2.09-8.59-7.89
					c0.14-43.55,0.41-87.11,0.57-130.66c0.14-39.02,0.19-78.04,0.28-117.06c0.02-7.38,1.02-8.22,8.26-6.92
					c36.9,6.67,74.12,11.27,111.21,16.78c22.93,3.41,45.88,6.68,68.83,9.96c3.1,0.44,4.63,1.44,4.56,5.1
					c-0.11,5.23-0.16,23.36-0.17,37.54h-26.07c0.02-6.79,0.04-13.84,0.09-14.82c0.16-3.14-0.81-4.6-4-5.05
					c-28.16-4-56.29-8.09-84.44-12.15c-15.96-2.29-31.95-4.35-47.85-6.99c-4.22-0.7-4.34,0.75-4.35,3.99
					c-0.1,64.97-0.23,129.95-0.52,194.92c-0.02,4.3,1.1,5.65,5.47,5.33c22.97-1.7,45.95-3.15,68.93-4.69
					c20.27-1.36,40.52-2.93,60.8-3.98c4.75-0.24,6.12-1.53,6.01-6.29c-0.04-1.96-0.08-11.92-0.05-20.37h26.01
					c0.04,8.3,0.04,18,0.04,19.82C-5875.57,415.97-5875.68,424.87-5875.51,433.76z"/>
				<path id="XMLID_43_" class="st1" d="M-6094.67,426.8c0.64-67.31,1.07-134.63,1.08-201.95c0-9.36,0.28-17.1,11.22-19.49
					c0.12-0.03,0.19-0.3,0.67-1.09c-7.41-0.94-14.18-1.99-21-2.6c-5.43-0.48-7.02,1.26-7.02,6.87
					c-0.03,74.94-0.06,149.88-0.08,224.82c0,6.2,2.68,8.89,9.07,8.41c6.73-0.5,13.42-1.54,20.12-2.35c-2.2-1.63-4.48-2.71-6.89-3.15
					C-6092.95,435.31-6094.72,432.71-6094.67,426.8z"/>
			</g>
		</g>
	</g>
</g>
<rect x="-5129.48" y="14.12" class="st6" width="1199.01" height="636"/>
<g>
	<g>
		<path class="st1" d="M-4719.6,323.38c8.77,3.89,13.85,10.26,13.85,20.13c0,13.65-9.67,23.62-34.78,23.62h-46.73v-83.7h47.23
			c24.41,0,31.79,10.26,31.79,21.72c0,9.07-4.58,13.75-11.36,16.94V323.38z M-4764.74,300.76v16.64h22.82
			c8.17,0,12.16-3.19,12.16-8.17c0-5.18-3.99-8.47-12.16-8.47H-4764.74z M-4741.02,349.69c8.27,0,12.56-4.18,12.56-9.77
			c0-5.48-4.28-9.17-12.56-9.17h-23.72v18.93H-4741.02z"/>
		<path class="st1" d="M-4695.29,325.27c0-26.51,18.63-44.64,46.54-44.64c27.8,0,46.44,18.14,46.44,44.64
			c0,26.41-18.63,44.64-46.44,44.64C-4676.65,369.92-4695.29,351.68-4695.29,325.27z M-4624.54,325.27
			c0-15.45-10.66-25.21-24.21-25.21c-13.65,0-24.21,9.77-24.21,25.21c0,15.35,10.56,25.21,24.21,25.21
			C-4635.2,350.48-4624.54,340.62-4624.54,325.27z"/>
		<path class="st1" d="M-4590.56,325.27c0-26.51,18.63-44.64,46.54-44.64c27.8,0,46.44,18.14,46.44,44.64
			c0,26.41-18.63,44.64-46.44,44.64C-4571.93,369.92-4590.56,351.68-4590.56,325.27z M-4519.81,325.27
			c0-15.45-10.66-25.21-24.21-25.21c-13.65,0-24.21,9.77-24.21,25.21c0,15.35,10.56,25.21,24.21,25.21
			C-4530.48,350.48-4519.81,340.62-4519.81,325.27z"/>
		<path class="st1" d="M-4422.06,367.13l-25.71-32.98h-1.5l-13.45,14.05v18.93h-22.42v-83.7h22.42v37.77h1.49l35.47-37.77h25.21
			l-34.58,37.17l36.27,46.54H-4422.06z"/>
		<path class="st1" d="M-4389.68,283.42h22.52v83.7h-22.52V283.42z"/>
		<path class="st1" d="M-4353.21,283.42h72.05v18.73h-49.52v16.94h46.93v16.64h-46.93v31.39h-22.52V283.42z"/>
		<path class="st1" d="M-4213.81,340.62v26.51h-22.42v-26.61l-34.48-57.1h23.82l20.83,35.47h2.09l20.93-35.47h23.72L-4213.81,340.62
			z"/>
	</g>
	<g>
		<path class="st1" d="M-4626.55,387.09h5v24.41h-5V387.09z"/>
		<path class="st1" d="M-4617.14,387.09h5.84l12.41,17.49h0.52v-17.49h4.94v24.41h-5.78l-12.55-17.49h-0.44v17.49h-4.94V387.09z"/>
		<path class="st1" d="M-4589.65,404.15h4.53c0.26,2.53,2.3,4.1,6.48,4.15c4.01-0.03,6.31-1.45,6.31-3.63
			c0-1.98-1.69-2.82-4.77-3.37l-2.99-0.52c-4.59-0.84-8.86-2.27-8.86-7.29c0-4.56,3.86-7.21,10.4-7.21c6.13,0,10.4,2.35,10.52,8.08
			h-4.53c-0.41-2.41-2.24-4.04-6.1-4.04c-3.52,0-5.49,1.22-5.49,3.4c0,1.71,1.45,2.67,4.18,3.23l2.64,0.46
			c4.59,0.84,10,1.83,10,7.41c0,4.68-3.92,7.47-11.3,7.5C-4585.73,412.31-4589.62,409.67-4589.65,404.15z"/>
		<path class="st1" d="M-4563.48,411.5v-24.41h12.38c6.45,0,9.88,3.17,9.88,8.77c0,5.55-3.43,8.69-9.91,8.69h-7.35v6.94H-4563.48z
			 M-4558.48,400.31h7.12c3.14,0,5.08-1.48,5.08-4.45c0-3.02-1.95-4.53-5.11-4.53h-7.09V400.31z"/>
		<path class="st1" d="M-4537.15,387.09h5v24.41h-5V387.09z"/>
		<path class="st1" d="M-4504.99,411.5h-5.03l-4.27-7.58h-8.46v7.58h-5v-24.41h12.41c6.48,0,9.79,3.11,9.79,8.57
			c0,3.43-1.71,5.93-4.36,7.26L-4504.99,411.5z M-4522.74,391.33v8.66h7.18c3.23,0,5.06-1.45,5.06-4.33c0-2.88-1.83-4.33-5.06-4.33
			H-4522.74z"/>
		<path class="st1" d="M-4501.16,387.09h5v24.41h-5V387.09z"/>
		<path class="st1" d="M-4491.74,387.09h5.84l12.41,17.49h0.52v-17.49h4.94v24.41h-5.78l-12.55-17.49h-0.44v17.49h-4.94V387.09z"/>
		<path class="st1" d="M-4438.63,411.5h-3.4l-0.03-3.66c-1.69,2.64-4.79,4.47-9.12,4.47c-7.35,0-12.93-5.38-12.93-13.02
			c0-7.61,5.46-13.02,13.31-13.02c5.11,0,10.29,2.35,11.71,8.34h-5.06c-1.08-2.53-3.46-3.95-6.6-3.95c-4.82,0-8.43,3.57-8.43,8.63
			c0,5,3.6,8.63,8.37,8.63c2.88,0,6.33-1.34,7.21-5.29h-7.67v-3.84h12.64V411.5z"/>
		<path class="st1" d="M-4406.76,411.5l-8.48-10.49h-0.38l-4.5,4.62v5.87h-4.97v-24.41h4.97v12.41h0.44l11.85-12.41h5.78
			l-10.26,10.84l10.87,13.57H-4406.76z"/>
		<path class="st1" d="M-4398.34,387.09h5.84l12.41,17.49h0.52v-17.49h4.94v24.41h-5.78l-12.55-17.49h-0.44v17.49h-4.94V387.09z"/>
		<path class="st1" d="M-4370.48,399.53c0-7.5,5.35-12.78,12.99-12.78c7.73,0,13.07,5.29,13.07,12.78c0,7.5-5.35,12.79-13.07,12.79
			C-4365.13,412.31-4370.48,407.02-4370.48,399.53z M-4349.35,399.53c0-5-3.46-8.48-8.14-8.48c-4.59,0-8.14,3.49-8.14,8.48
			c0,5.03,3.54,8.48,8.14,8.48C-4352.81,408.01-4349.35,404.55-4349.35,399.53z"/>
		<path class="st1" d="M-4342.41,387.09h5.06l4.33,19.03h0.46l5.03-19.03h4.36l5.08,19.03h0.46l4.27-19.03h5.11l-5.72,24.41h-6.83
			l-4.3-16.62h-0.52l-4.3,16.62h-6.77L-4342.41,387.09z"/>
		<path class="st1" d="M-4304.5,387.09h5v20.19h14.41v4.21h-19.41V387.09z"/>
		<path class="st1" d="M-4280.99,387.09h20.05v4.15H-4276v6.1h14.53v3.81H-4276v6.13h15.05v4.21h-20.05V387.09z"/>
		<path class="st1" d="M-4232.7,399.3c0,6.94-3.66,12.2-12.96,12.2h-10.87v-24.41h10.87C-4236.36,387.09-4232.7,392.38-4232.7,399.3
			z M-4237.76,399.3c0-4.97-2.7-7.93-7.96-7.93h-5.72l-0.09,15.89h5.81C-4240.46,407.26-4237.76,404.29-4237.76,399.3z"/>
		<path class="st1" d="M-4203.59,411.5h-3.4l-0.03-3.66c-1.69,2.64-4.79,4.47-9.12,4.47c-7.35,0-12.93-5.38-12.93-13.02
			c0-7.61,5.46-13.02,13.31-13.02c5.11,0,10.29,2.35,11.71,8.34h-5.06c-1.08-2.53-3.46-3.95-6.6-3.95c-4.82,0-8.43,3.57-8.43,8.63
			c0,5,3.6,8.63,8.37,8.63c2.88,0,6.33-1.34,7.21-5.29h-7.67v-3.84h12.64V411.5z"/>
		<path class="st1" d="M-4199.09,387.09h20.05v4.15h-15.05v6.1h14.53v3.81h-14.53v6.13h15.05v4.21h-20.05V387.09z"/>
	</g>
	<g>
		<g id="XMLID_26_">
			<g>
				<path class="st1" d="M-4646.62,433.76c0.06,2.96-0.78,4.1-3.85,4.28c-13.57,0.83-27.12,2.12-40.7,2.75
					c-4.35,0.2-5.92,1.16-5.73,5.78c0.38,9.71,0.11,19.45,0.11,30.2c-12.83-9.25-25.01-17.68-36.77-26.65
					c-5.63-4.3-11.05-5.94-18.37-5.28c-26.54,2.41-53.16,3.89-79.76,5.68c-5.74,0.39-8.6-2.09-8.59-7.89
					c0.14-43.55,0.41-87.11,0.57-130.66c0.14-39.02,0.19-78.04,0.27-117.06c0.02-7.38,1.02-8.22,8.26-6.92
					c36.9,6.67,74.12,11.27,111.21,16.78c22.93,3.41,45.88,6.68,68.83,9.96c3.1,0.44,4.63,1.44,4.56,5.1
					c-0.11,5.23-0.16,23.36-0.18,37.54h-26.07c0.02-6.79,0.04-13.84,0.09-14.82c0.16-3.14-0.81-4.6-4-5.05
					c-28.16-4-56.29-8.09-84.44-12.15c-15.96-2.29-31.95-4.35-47.85-6.99c-4.22-0.7-4.34,0.75-4.35,3.99
					c-0.1,64.97-0.23,129.95-0.52,194.92c-0.02,4.3,1.1,5.65,5.47,5.33c22.97-1.7,45.95-3.15,68.93-4.69
					c20.27-1.36,40.52-2.93,60.8-3.98c4.75-0.24,6.12-1.53,6.01-6.29c-0.04-1.96-0.08-11.92-0.05-20.37h26.01
					c0.04,8.3,0.04,18,0.04,19.82C-4646.68,415.97-4646.79,424.87-4646.62,433.76z"/>
				<path id="XMLID_53_" class="st1" d="M-4865.78,426.8c0.64-67.31,1.07-134.63,1.08-201.95c0-9.36,0.28-17.1,11.22-19.49
					c0.12-0.03,0.19-0.3,0.67-1.09c-7.41-0.94-14.18-1.99-21-2.6c-5.43-0.48-7.02,1.26-7.02,6.87
					c-0.03,74.94-0.06,149.88-0.08,224.82c0,6.2,2.68,8.89,9.07,8.41c6.73-0.5,13.42-1.54,20.12-2.35c-2.2-1.63-4.48-2.71-6.89-3.15
					C-4864.06,435.31-4865.84,432.71-4865.78,426.8z"/>
			</g>
		</g>
	</g>
</g>
<rect x="-5129.48" y="-650.12" class="st1" width="1199.01" height="636"/>
<g>
	<g>
		<path class="st4" d="M-4719.6-340.86c8.77,3.89,13.85,10.26,13.85,20.13c0,13.65-9.67,23.62-34.78,23.62h-46.73v-83.7h47.23
			c24.41,0,31.79,10.26,31.79,21.72c0,9.07-4.58,13.75-11.36,16.94V-340.86z M-4764.74-363.48v16.64h22.82
			c8.17,0,12.16-3.19,12.16-8.17c0-5.18-3.99-8.47-12.16-8.47H-4764.74z M-4741.02-314.55c8.27,0,12.56-4.18,12.56-9.77
			c0-5.48-4.28-9.17-12.56-9.17h-23.72v18.93H-4741.02z"/>
		<path class="st4" d="M-4695.29-338.96c0-26.51,18.63-44.64,46.54-44.64c27.8,0,46.44,18.14,46.44,44.64
			c0,26.41-18.63,44.64-46.44,44.64C-4676.65-294.32-4695.29-312.56-4695.29-338.96z M-4624.54-338.96
			c0-15.45-10.66-25.21-24.21-25.21c-13.65,0-24.21,9.77-24.21,25.21c0,15.35,10.56,25.21,24.21,25.21
			C-4635.2-313.75-4624.54-323.62-4624.54-338.96z"/>
		<path class="st4" d="M-4590.56-338.96c0-26.51,18.63-44.64,46.54-44.64c27.8,0,46.44,18.14,46.44,44.64
			c0,26.41-18.63,44.64-46.44,44.64C-4571.93-294.32-4590.56-312.56-4590.56-338.96z M-4519.81-338.96
			c0-15.45-10.66-25.21-24.21-25.21c-13.65,0-24.21,9.77-24.21,25.21c0,15.35,10.56,25.21,24.21,25.21
			C-4530.48-313.75-4519.81-323.62-4519.81-338.96z"/>
		<path class="st4" d="M-4422.06-297.11l-25.71-32.98h-1.5l-13.45,14.05v18.93h-22.42v-83.7h22.42v37.77h1.49l35.47-37.77h25.21
			l-34.58,37.17l36.27,46.54H-4422.06z"/>
		<path class="st4" d="M-4389.68-380.81h22.52v83.7h-22.52V-380.81z"/>
		<path class="st4" d="M-4353.21-380.81h72.05v18.73h-49.52v16.94h46.93v16.64h-46.93v31.39h-22.52V-380.81z"/>
		<path class="st4" d="M-4213.81-323.62v26.51h-22.42v-26.61l-34.48-57.1h23.82l20.83,35.47h2.09l20.93-35.47h23.72L-4213.81-323.62
			z"/>
	</g>
	<g>
		<path class="st4" d="M-4626.55-277.14h5v24.41h-5V-277.14z"/>
		<path class="st4" d="M-4617.14-277.14h5.84l12.41,17.49h0.52v-17.49h4.94v24.41h-5.78l-12.55-17.49h-0.44v17.49h-4.94V-277.14z"/>
		<path class="st4" d="M-4589.65-260.09h4.53c0.26,2.53,2.3,4.1,6.48,4.15c4.01-0.03,6.31-1.45,6.31-3.63
			c0-1.98-1.69-2.82-4.77-3.37l-2.99-0.52c-4.59-0.84-8.86-2.27-8.86-7.29c0-4.56,3.86-7.21,10.4-7.21c6.13,0,10.4,2.35,10.52,8.08
			h-4.53c-0.41-2.41-2.24-4.04-6.1-4.04c-3.52,0-5.49,1.22-5.49,3.4c0,1.71,1.45,2.67,4.18,3.23l2.64,0.46
			c4.59,0.84,10,1.83,10,7.41c0,4.68-3.92,7.47-11.3,7.5C-4585.73-251.92-4589.62-254.57-4589.65-260.09z"/>
		<path class="st4" d="M-4563.48-252.74v-24.41h12.38c6.45,0,9.88,3.17,9.88,8.77c0,5.55-3.43,8.69-9.91,8.69h-7.35v6.94H-4563.48z
			 M-4558.48-263.92h7.12c3.14,0,5.08-1.48,5.08-4.45c0-3.02-1.95-4.53-5.11-4.53h-7.09V-263.92z"/>
		<path class="st4" d="M-4537.15-277.14h5v24.41h-5V-277.14z"/>
		<path class="st4" d="M-4504.99-252.74h-5.03l-4.27-7.58h-8.46v7.58h-5v-24.41h12.41c6.48,0,9.79,3.11,9.79,8.57
			c0,3.43-1.71,5.93-4.36,7.26L-4504.99-252.74z M-4522.74-272.9v8.66h7.18c3.23,0,5.06-1.45,5.06-4.33c0-2.88-1.83-4.33-5.06-4.33
			H-4522.74z"/>
		<path class="st4" d="M-4501.16-277.14h5v24.41h-5V-277.14z"/>
		<path class="st4" d="M-4491.74-277.14h5.84l12.41,17.49h0.52v-17.49h4.94v24.41h-5.78l-12.55-17.49h-0.44v17.49h-4.94V-277.14z"/>
		<path class="st4" d="M-4438.63-252.74h-3.4l-0.03-3.66c-1.69,2.64-4.79,4.47-9.12,4.47c-7.35,0-12.93-5.38-12.93-13.02
			c0-7.61,5.46-13.02,13.31-13.02c5.11,0,10.29,2.35,11.71,8.34h-5.06c-1.08-2.53-3.46-3.95-6.6-3.95c-4.82,0-8.43,3.57-8.43,8.63
			c0,5,3.6,8.63,8.37,8.63c2.88,0,6.33-1.34,7.21-5.29h-7.67v-3.84h12.64V-252.74z"/>
		<path class="st4" d="M-4406.76-252.74l-8.48-10.49h-0.38l-4.5,4.62v5.87h-4.97v-24.41h4.97v12.41h0.44l11.85-12.41h5.78
			l-10.26,10.84l10.87,13.57H-4406.76z"/>
		<path class="st4" d="M-4398.34-277.14h5.84l12.41,17.49h0.52v-17.49h4.94v24.41h-5.78l-12.55-17.49h-0.44v17.49h-4.94V-277.14z"/>
		<path class="st4" d="M-4370.48-264.71c0-7.5,5.35-12.78,12.99-12.78c7.73,0,13.07,5.29,13.07,12.78c0,7.5-5.35,12.79-13.07,12.79
			C-4365.13-251.92-4370.48-257.21-4370.48-264.71z M-4349.35-264.71c0-5-3.46-8.48-8.14-8.48c-4.59,0-8.14,3.49-8.14,8.48
			c0,5.03,3.54,8.48,8.14,8.48C-4352.81-256.22-4349.35-259.68-4349.35-264.71z"/>
		<path class="st4" d="M-4342.41-277.14h5.06l4.33,19.03h0.46l5.03-19.03h4.36l5.08,19.03h0.46l4.27-19.03h5.11l-5.72,24.41h-6.83
			l-4.3-16.62h-0.52l-4.3,16.62h-6.77L-4342.41-277.14z"/>
		<path class="st4" d="M-4304.5-277.14h5v20.19h14.41v4.21h-19.41V-277.14z"/>
		<path class="st4" d="M-4280.99-277.14h20.05v4.15H-4276v6.1h14.53v3.81H-4276v6.13h15.05v4.21h-20.05V-277.14z"/>
		<path class="st4" d="M-4232.7-264.94c0,6.94-3.66,12.2-12.96,12.2h-10.87v-24.41h10.87
			C-4236.36-277.14-4232.7-271.86-4232.7-264.94z M-4237.76-264.94c0-4.97-2.7-7.93-7.96-7.93h-5.72l-0.09,15.89h5.81
			C-4240.46-256.98-4237.76-259.94-4237.76-264.94z"/>
		<path class="st4" d="M-4203.59-252.74h-3.4l-0.03-3.66c-1.69,2.64-4.79,4.47-9.12,4.47c-7.35,0-12.93-5.38-12.93-13.02
			c0-7.61,5.46-13.02,13.31-13.02c5.11,0,10.29,2.35,11.71,8.34h-5.06c-1.08-2.53-3.46-3.95-6.6-3.95c-4.82,0-8.43,3.57-8.43,8.63
			c0,5,3.6,8.63,8.37,8.63c2.88,0,6.33-1.34,7.21-5.29h-7.67v-3.84h12.64V-252.74z"/>
		<path class="st4" d="M-4199.09-277.14h20.05v4.15h-15.05v6.1h14.53v3.81h-14.53v6.13h15.05v4.21h-20.05V-277.14z"/>
	</g>
	<g>
		<g id="XMLID_12_">
			<g>
				<path class="st4" d="M-4646.62-230.48c0.06,2.96-0.78,4.1-3.85,4.28c-13.57,0.83-27.12,2.12-40.7,2.75
					c-4.35,0.2-5.92,1.16-5.73,5.78c0.38,9.71,0.11,19.45,0.11,30.2c-12.83-9.25-25.01-17.68-36.77-26.65
					c-5.63-4.3-11.05-5.94-18.37-5.28c-26.54,2.41-53.16,3.89-79.76,5.68c-5.74,0.39-8.6-2.09-8.59-7.89
					c0.14-43.55,0.41-87.11,0.57-130.66c0.14-39.02,0.19-78.04,0.27-117.06c0.02-7.38,1.02-8.22,8.26-6.92
					c36.9,6.67,74.12,11.27,111.21,16.78c22.93,3.41,45.88,6.68,68.83,9.96c3.1,0.44,4.63,1.44,4.56,5.1
					c-0.11,5.23-0.16,23.36-0.18,37.54h-26.07c0.02-6.79,0.04-13.84,0.09-14.82c0.16-3.14-0.81-4.6-4-5.05
					c-28.16-4-56.29-8.09-84.44-12.15c-15.96-2.29-31.95-4.35-47.85-6.99c-4.22-0.7-4.34,0.75-4.35,3.99
					c-0.1,64.97-0.23,129.95-0.52,194.92c-0.02,4.3,1.1,5.65,5.47,5.33c22.97-1.7,45.95-3.15,68.93-4.69
					c20.27-1.36,40.52-2.93,60.8-3.98c4.75-0.24,6.12-1.53,6.01-6.29c-0.04-1.96-0.08-11.92-0.05-20.37h26.01
					c0.04,8.3,0.04,18,0.04,19.82C-4646.68-248.27-4646.79-239.37-4646.62-230.48z"/>
				<path id="XMLID_55_" class="st4" d="M-4865.78-237.43c0.64-67.31,1.07-134.63,1.08-201.95c0-9.36,0.28-17.1,11.22-19.49
					c0.12-0.03,0.19-0.3,0.67-1.09c-7.41-0.94-14.18-1.99-21-2.6c-5.43-0.48-7.02,1.26-7.02,6.87
					c-0.03,74.94-0.06,149.88-0.08,224.82c0,6.2,2.68,8.89,9.07,8.41c6.73-0.5,13.42-1.54,20.12-2.35c-2.2-1.63-4.48-2.71-6.89-3.15
					C-4864.06-228.93-4865.84-231.53-4865.78-237.43z"/>
			</g>
		</g>
	</g>
</g>
<rect x="-1228.89" y="-664.24" class="st7" width="1199.01" height="636"/>
<g>
	<g>
		<path class="st1" d="M-819.01-354.97c8.77,3.89,13.85,10.26,13.85,20.13c0,13.65-9.67,23.62-34.78,23.62h-46.73v-83.7h47.23
			c24.41,0,31.79,10.26,31.79,21.72c0,9.07-4.58,13.75-11.36,16.94V-354.97z M-864.15-377.59v16.64h22.82
			c8.17,0,12.16-3.19,12.16-8.17c0-5.18-3.99-8.47-12.16-8.47H-864.15z M-840.43-328.67c8.27,0,12.56-4.18,12.56-9.77
			c0-5.48-4.28-9.17-12.56-9.17h-23.72v18.93H-840.43z"/>
		<path class="st1" d="M-794.7-353.08c0-26.51,18.63-44.64,46.54-44.64c27.8,0,46.44,18.14,46.44,44.64
			c0,26.41-18.63,44.64-46.44,44.64C-776.06-308.44-794.7-326.67-794.7-353.08z M-723.95-353.08c0-15.45-10.66-25.21-24.21-25.21
			c-13.65,0-24.21,9.77-24.21,25.21c0,15.35,10.56,25.21,24.21,25.21C-734.61-327.87-723.95-337.73-723.95-353.08z"/>
		<path class="st1" d="M-689.97-353.08c0-26.51,18.63-44.64,46.54-44.64c27.8,0,46.44,18.14,46.44,44.64
			c0,26.41-18.63,44.64-46.44,44.64C-671.34-308.44-689.97-326.67-689.97-353.08z M-619.22-353.08c0-15.45-10.66-25.21-24.21-25.21
			c-13.65,0-24.21,9.77-24.21,25.21c0,15.35,10.56,25.21,24.21,25.21C-629.89-327.87-619.22-337.73-619.22-353.08z"/>
		<path class="st1" d="M-521.47-311.23l-25.71-32.98h-1.49l-13.45,14.05v18.93h-22.42v-83.7h22.42v37.77h1.49l35.47-37.77h25.21
			l-34.58,37.17l36.27,46.54H-521.47z"/>
		<path class="st1" d="M-489.09-394.93h22.52v83.7h-22.52V-394.93z"/>
		<path class="st1" d="M-452.62-394.93h72.05v18.73h-49.52v16.94h46.93v16.64h-46.93v31.39h-22.52V-394.93z"/>
		<path class="st1" d="M-313.22-337.73v26.51h-22.42v-26.61l-34.48-57.1h23.82l20.83,35.47h2.09l20.93-35.47h23.72L-313.22-337.73z"
			/>
	</g>
	<g>
		<path class="st1" d="M-725.96-291.26h5v24.41h-5V-291.26z"/>
		<path class="st1" d="M-716.55-291.26h5.84l12.41,17.49h0.52v-17.49h4.94v24.41h-5.78l-12.55-17.49h-0.44v17.49h-4.94V-291.26z"/>
		<path class="st1" d="M-689.06-274.21h4.53c0.26,2.53,2.3,4.1,6.48,4.15c4.01-0.03,6.31-1.45,6.31-3.63c0-1.98-1.69-2.82-4.77-3.37
			l-2.99-0.52c-4.59-0.84-8.86-2.27-8.86-7.29c0-4.56,3.86-7.21,10.4-7.21c6.13,0,10.4,2.35,10.52,8.08h-4.53
			c-0.41-2.41-2.24-4.04-6.1-4.04c-3.52,0-5.49,1.22-5.49,3.4c0,1.71,1.45,2.67,4.18,3.23l2.64,0.46c4.59,0.84,10,1.83,10,7.41
			c0,4.68-3.92,7.47-11.3,7.5C-685.14-266.04-689.03-268.69-689.06-274.21z"/>
		<path class="st1" d="M-662.89-266.85v-24.41h12.38c6.45,0,9.88,3.17,9.88,8.77c0,5.55-3.43,8.69-9.91,8.69h-7.35v6.94H-662.89z
			 M-657.89-278.04h7.12c3.14,0,5.08-1.48,5.08-4.45c0-3.02-1.95-4.53-5.11-4.53h-7.09V-278.04z"/>
		<path class="st1" d="M-636.56-291.26h5v24.41h-5V-291.26z"/>
		<path class="st1" d="M-604.4-266.85h-5.03l-4.27-7.58h-8.46v7.58h-5v-24.41h12.41c6.48,0,9.79,3.11,9.79,8.57
			c0,3.43-1.71,5.93-4.36,7.26L-604.4-266.85z M-622.15-287.02v8.66h7.18c3.23,0,5.06-1.45,5.06-4.33c0-2.88-1.83-4.33-5.06-4.33
			H-622.15z"/>
		<path class="st1" d="M-600.57-291.26h5v24.41h-5V-291.26z"/>
		<path class="st1" d="M-591.15-291.26h5.84l12.41,17.49h0.52v-17.49h4.94v24.41h-5.78l-12.55-17.49h-0.44v17.49h-4.94V-291.26z"/>
		<path class="st1" d="M-538.04-266.85h-3.4l-0.03-3.66c-1.69,2.64-4.79,4.47-9.12,4.47c-7.35,0-12.93-5.38-12.93-13.02
			c0-7.61,5.46-13.02,13.31-13.02c5.11,0,10.29,2.35,11.71,8.34h-5.06c-1.08-2.53-3.46-3.95-6.6-3.95c-4.82,0-8.43,3.57-8.43,8.63
			c0,5,3.6,8.63,8.37,8.63c2.88,0,6.33-1.34,7.21-5.29h-7.67v-3.84h12.64V-266.85z"/>
		<path class="st1" d="M-506.17-266.85l-8.48-10.49h-0.38l-4.5,4.62v5.87h-4.97v-24.41h4.97v12.41h0.44l11.86-12.41h5.78
			l-10.26,10.84l10.87,13.57H-506.17z"/>
		<path class="st1" d="M-497.75-291.26h5.84l12.41,17.49h0.52v-17.49h4.94v24.41h-5.78l-12.55-17.49h-0.44v17.49h-4.94V-291.26z"/>
		<path class="st1" d="M-469.89-278.83c0-7.5,5.35-12.78,12.99-12.78c7.73,0,13.07,5.29,13.07,12.78c0,7.5-5.35,12.79-13.07,12.79
			C-464.54-266.04-469.89-271.33-469.89-278.83z M-448.76-278.83c0-5-3.46-8.48-8.14-8.48c-4.59,0-8.14,3.49-8.14,8.48
			c0,5.03,3.54,8.48,8.14,8.48C-452.22-270.34-448.76-273.8-448.76-278.83z"/>
		<path class="st1" d="M-441.82-291.26h5.06l4.33,19.03h0.46l5.03-19.03h4.36l5.08,19.03h0.46l4.27-19.03h5.11l-5.72,24.41h-6.83
			l-4.3-16.62h-0.52l-4.3,16.62h-6.77L-441.82-291.26z"/>
		<path class="st1" d="M-403.91-291.26h5v20.19h14.41v4.21h-19.41V-291.26z"/>
		<path class="st1" d="M-380.4-291.26h20.05v4.15h-15.05v6.1h14.53v3.81h-14.53v6.13h15.05v4.21h-20.05V-291.26z"/>
		<path class="st1" d="M-332.11-279.06c0,6.94-3.66,12.2-12.96,12.2h-10.87v-24.41h10.87
			C-335.77-291.26-332.11-285.97-332.11-279.06z M-337.17-279.06c0-4.97-2.7-7.93-7.96-7.93h-5.72l-0.09,15.89h5.81
			C-339.87-271.1-337.17-274.06-337.17-279.06z"/>
		<path class="st1" d="M-303-266.85h-3.4l-0.03-3.66c-1.69,2.64-4.79,4.47-9.12,4.47c-7.35,0-12.93-5.38-12.93-13.02
			c0-7.61,5.46-13.02,13.31-13.02c5.11,0,10.29,2.35,11.71,8.34h-5.06c-1.08-2.53-3.46-3.95-6.6-3.95c-4.82,0-8.43,3.57-8.43,8.63
			c0,5,3.6,8.63,8.37,8.63c2.88,0,6.33-1.34,7.21-5.29h-7.67v-3.84H-303V-266.85z"/>
		<path class="st1" d="M-298.5-291.26h20.05v4.15h-15.05v6.1h14.53v3.81h-14.53v6.13h15.05v4.21h-20.05V-291.26z"/>
	</g>
	<g>
		<g id="XMLID_29_">
			<g>
				<path class="st1" d="M-746.03-244.59c0.06,2.96-0.78,4.1-3.85,4.28c-13.57,0.83-27.12,2.12-40.7,2.75
					c-4.35,0.2-5.92,1.16-5.73,5.78c0.38,9.71,0.11,19.45,0.11,30.2c-12.83-9.25-25.01-17.68-36.77-26.65
					c-5.63-4.3-11.05-5.94-18.37-5.28c-26.54,2.41-53.16,3.89-79.76,5.68c-5.74,0.39-8.6-2.09-8.59-7.89
					c0.14-43.55,0.41-87.11,0.57-130.66c0.14-39.02,0.19-78.04,0.28-117.06c0.02-7.38,1.02-8.22,8.26-6.92
					c36.9,6.67,74.12,11.27,111.21,16.78c22.93,3.41,45.88,6.68,68.83,9.96c3.1,0.44,4.63,1.44,4.56,5.1
					c-0.11,5.23-0.16,23.36-0.18,37.54h-26.07c0.02-6.79,0.04-13.84,0.09-14.82c0.16-3.14-0.81-4.6-4-5.05
					c-28.16-4-56.29-8.09-84.44-12.15c-15.96-2.29-31.95-4.35-47.85-6.99c-4.22-0.7-4.34,0.75-4.35,3.99
					c-0.1,64.97-0.23,129.95-0.52,194.92c-0.02,4.3,1.1,5.65,5.47,5.33c22.97-1.7,45.95-3.15,68.93-4.69
					c20.27-1.36,40.52-2.93,60.8-3.98c4.75-0.24,6.12-1.53,6.01-6.29c-0.04-1.96-0.08-11.92-0.05-20.37h26.01
					c0.04,8.3,0.04,18,0.04,19.82C-746.09-262.38-746.2-253.49-746.03-244.59z"/>
				<path id="XMLID_38_" class="st1" d="M-965.19-251.55c0.64-67.31,1.07-134.63,1.08-201.95c0-9.36,0.28-17.1,11.22-19.49
					c0.12-0.03,0.19-0.3,0.67-1.09c-7.41-0.94-14.18-1.99-21-2.6c-5.43-0.48-7.02,1.26-7.02,6.87
					c-0.03,74.94-0.06,149.88-0.08,224.82c0,6.2,2.68,8.89,9.07,8.41c6.73-0.5,13.42-1.54,20.12-2.35c-2.2-1.63-4.48-2.71-6.89-3.15
					C-963.47-243.04-965.25-245.65-965.19-251.55z"/>
			</g>
		</g>
	</g>
</g>
<linearGradient id="SVGID_3_" gradientUnits="userSpaceOnUse" x1="-1228.8873" y1="318" x2="-29.881" y2="318">
	<stop  offset="0" style="stop-color:#8C6CFF"/>
	<stop  offset="1" style="stop-color:#651FFF"/>
</linearGradient>
<rect x="-1228.89" class="st8" width="1199.01" height="636"/>
<g>
	<g>
		<path class="st1" d="M-819.01,309.26c8.77,3.89,13.85,10.26,13.85,20.13c0,13.65-9.67,23.62-34.78,23.62h-46.73v-83.7h47.23
			c24.41,0,31.79,10.26,31.79,21.72c0,9.07-4.58,13.75-11.36,16.94V309.26z M-864.15,286.64v16.64h22.82
			c8.17,0,12.16-3.19,12.16-8.17c0-5.18-3.99-8.47-12.16-8.47H-864.15z M-840.43,335.57c8.27,0,12.56-4.18,12.56-9.77
			c0-5.48-4.28-9.17-12.56-9.17h-23.72v18.93H-840.43z"/>
		<path class="st1" d="M-794.7,311.16c0-26.51,18.63-44.64,46.54-44.64c27.8,0,46.44,18.14,46.44,44.64
			c0,26.41-18.63,44.64-46.44,44.64C-776.06,355.8-794.7,337.56-794.7,311.16z M-723.95,311.16c0-15.45-10.66-25.21-24.21-25.21
			c-13.65,0-24.21,9.77-24.21,25.21c0,15.35,10.56,25.21,24.21,25.21C-734.61,336.37-723.95,326.5-723.95,311.16z"/>
		<path class="st1" d="M-689.97,311.16c0-26.51,18.63-44.64,46.54-44.64c27.8,0,46.44,18.14,46.44,44.64
			c0,26.41-18.63,44.64-46.44,44.64C-671.34,355.8-689.97,337.56-689.97,311.16z M-619.22,311.16c0-15.45-10.66-25.21-24.21-25.21
			c-13.65,0-24.21,9.77-24.21,25.21c0,15.35,10.56,25.21,24.21,25.21C-629.89,336.37-619.22,326.5-619.22,311.16z"/>
		<path class="st1" d="M-521.47,353.01l-25.71-32.98h-1.49l-13.45,14.05v18.93h-22.42v-83.7h22.42v37.77h1.49l35.47-37.77h25.21
			l-34.58,37.17l36.27,46.54H-521.47z"/>
		<path class="st1" d="M-489.09,269.3h22.52v83.7h-22.52V269.3z"/>
		<path class="st1" d="M-452.62,269.3h72.05v18.73h-49.52v16.94h46.93v16.64h-46.93v31.39h-22.52V269.3z"/>
		<path class="st1" d="M-313.22,326.5v26.51h-22.42V326.4l-34.48-57.1h23.82l20.83,35.47h2.09l20.93-35.47h23.72L-313.22,326.5z"/>
	</g>
	<g>
		<path class="st1" d="M-725.96,372.97h5v24.41h-5V372.97z"/>
		<path class="st1" d="M-716.55,372.97h5.84l12.41,17.49h0.52v-17.49h4.94v24.41h-5.78l-12.55-17.49h-0.44v17.49h-4.94V372.97z"/>
		<path class="st1" d="M-689.06,390.03h4.53c0.26,2.53,2.3,4.1,6.48,4.15c4.01-0.03,6.31-1.45,6.31-3.63c0-1.98-1.69-2.82-4.77-3.37
			l-2.99-0.52c-4.59-0.84-8.86-2.27-8.86-7.29c0-4.56,3.86-7.21,10.4-7.21c6.13,0,10.4,2.35,10.52,8.08h-4.53
			c-0.41-2.41-2.24-4.04-6.1-4.04c-3.52,0-5.49,1.22-5.49,3.4c0,1.71,1.45,2.67,4.18,3.23l2.64,0.46c4.59,0.84,10,1.83,10,7.41
			c0,4.68-3.92,7.47-11.3,7.5C-685.14,398.19-689.03,395.55-689.06,390.03z"/>
		<path class="st1" d="M-662.89,397.38v-24.41h12.38c6.45,0,9.88,3.17,9.88,8.77c0,5.55-3.43,8.69-9.91,8.69h-7.35v6.94H-662.89z
			 M-657.89,386.19h7.12c3.14,0,5.08-1.48,5.08-4.45c0-3.02-1.95-4.53-5.11-4.53h-7.09V386.19z"/>
		<path class="st1" d="M-636.56,372.97h5v24.41h-5V372.97z"/>
		<path class="st1" d="M-604.4,397.38h-5.03l-4.27-7.58h-8.46v7.58h-5v-24.41h12.41c6.48,0,9.79,3.11,9.79,8.57
			c0,3.43-1.71,5.93-4.36,7.26L-604.4,397.38z M-622.15,377.22v8.66h7.18c3.23,0,5.06-1.45,5.06-4.33c0-2.88-1.83-4.33-5.06-4.33
			H-622.15z"/>
		<path class="st1" d="M-600.57,372.97h5v24.41h-5V372.97z"/>
		<path class="st1" d="M-591.15,372.97h5.84l12.41,17.49h0.52v-17.49h4.94v24.41h-5.78l-12.55-17.49h-0.44v17.49h-4.94V372.97z"/>
		<path class="st1" d="M-538.04,397.38h-3.4l-0.03-3.66c-1.69,2.64-4.79,4.47-9.12,4.47c-7.35,0-12.93-5.38-12.93-13.02
			c0-7.61,5.46-13.02,13.31-13.02c5.11,0,10.29,2.35,11.71,8.34h-5.06c-1.08-2.53-3.46-3.95-6.6-3.95c-4.82,0-8.43,3.57-8.43,8.63
			c0,5,3.6,8.63,8.37,8.63c2.88,0,6.33-1.34,7.21-5.29h-7.67v-3.84h12.64V397.38z"/>
		<path class="st1" d="M-506.17,397.38l-8.48-10.49h-0.38l-4.5,4.62v5.87h-4.97v-24.41h4.97v12.41h0.44l11.86-12.41h5.78
			l-10.26,10.84l10.87,13.57H-506.17z"/>
		<path class="st1" d="M-497.75,372.97h5.84l12.41,17.49h0.52v-17.49h4.94v24.41h-5.78l-12.55-17.49h-0.44v17.49h-4.94V372.97z"/>
		<path class="st1" d="M-469.89,385.41c0-7.5,5.35-12.78,12.99-12.78c7.73,0,13.07,5.29,13.07,12.78c0,7.5-5.35,12.79-13.07,12.79
			C-464.54,398.19-469.89,392.91-469.89,385.41z M-448.76,385.41c0-5-3.46-8.48-8.14-8.48c-4.59,0-8.14,3.49-8.14,8.48
			c0,5.03,3.54,8.48,8.14,8.48C-452.22,393.89-448.76,390.44-448.76,385.41z"/>
		<path class="st1" d="M-441.82,372.97h5.06l4.33,19.03h0.46l5.03-19.03h4.36l5.08,19.03h0.46l4.27-19.03h5.11l-5.72,24.41h-6.83
			l-4.3-16.62h-0.52l-4.3,16.62h-6.77L-441.82,372.97z"/>
		<path class="st1" d="M-403.91,372.97h5v20.19h14.41v4.21h-19.41V372.97z"/>
		<path class="st1" d="M-380.4,372.97h20.05v4.15h-15.05v6.1h14.53v3.81h-14.53v6.13h15.05v4.21h-20.05V372.97z"/>
		<path class="st1" d="M-332.11,385.18c0,6.94-3.66,12.2-12.96,12.2h-10.87v-24.41h10.87
			C-335.77,372.97-332.11,378.26-332.11,385.18z M-337.17,385.18c0-4.97-2.7-7.93-7.96-7.93h-5.72l-0.09,15.89h5.81
			C-339.87,393.14-337.17,390.18-337.17,385.18z"/>
		<path class="st1" d="M-303,397.38h-3.4l-0.03-3.66c-1.69,2.64-4.79,4.47-9.12,4.47c-7.35,0-12.93-5.38-12.93-13.02
			c0-7.61,5.46-13.02,13.31-13.02c5.11,0,10.29,2.35,11.71,8.34h-5.06c-1.08-2.53-3.46-3.95-6.6-3.95c-4.82,0-8.43,3.57-8.43,8.63
			c0,5,3.6,8.63,8.37,8.63c2.88,0,6.33-1.34,7.21-5.29h-7.67v-3.84H-303V397.38z"/>
		<path class="st1" d="M-298.5,372.97h20.05v4.15h-15.05v6.1h14.53v3.81h-14.53v6.13h15.05v4.21h-20.05V372.97z"/>
	</g>
	<g>
		<g id="XMLID_24_">
			<g>
				<path class="st1" d="M-746.03,419.64c0.06,2.96-0.78,4.1-3.85,4.28c-13.57,0.83-27.12,2.12-40.7,2.75
					c-4.35,0.2-5.92,1.16-5.73,5.78c0.38,9.71,0.11,19.45,0.11,30.2c-12.83-9.25-25.01-17.68-36.77-26.65
					c-5.63-4.3-11.05-5.94-18.37-5.28c-26.54,2.41-53.16,3.89-79.76,5.68c-5.74,0.39-8.6-2.09-8.59-7.89
					c0.14-43.55,0.41-87.11,0.57-130.66c0.14-39.02,0.19-78.04,0.28-117.06c0.02-7.38,1.02-8.22,8.26-6.92
					c36.9,6.67,74.12,11.27,111.21,16.78c22.93,3.41,45.88,6.68,68.83,9.96c3.1,0.44,4.63,1.44,4.56,5.1
					c-0.11,5.23-0.16,23.36-0.18,37.54h-26.07c0.02-6.79,0.04-13.84,0.09-14.82c0.16-3.14-0.81-4.6-4-5.05
					c-28.16-4-56.29-8.09-84.44-12.15c-15.96-2.29-31.95-4.35-47.85-6.99c-4.22-0.7-4.34,0.75-4.35,3.99
					c-0.1,64.97-0.23,129.95-0.52,194.92c-0.02,4.3,1.1,5.65,5.47,5.33c22.97-1.7,45.95-3.15,68.93-4.69
					c20.27-1.36,40.52-2.93,60.8-3.98c4.75-0.24,6.12-1.53,6.01-6.29c-0.04-1.96-0.08-11.92-0.05-20.37h26.01
					c0.04,8.3,0.04,18,0.04,19.82C-746.09,401.85-746.2,410.75-746.03,419.64z"/>
				<path id="XMLID_36_" class="st1" d="M-965.19,412.68c0.64-67.31,1.07-134.63,1.08-201.95c0-9.36,0.28-17.1,11.22-19.49
					c0.12-0.03,0.19-0.3,0.67-1.09c-7.41-0.94-14.18-1.99-21-2.6c-5.43-0.48-7.02,1.26-7.02,6.87
					c-0.03,74.94-0.06,149.88-0.08,224.82c0,6.2,2.68,8.89,9.07,8.41c6.73-0.5,13.42-1.54,20.12-2.35c-2.2-1.63-4.48-2.71-6.89-3.15
					C-963.47,421.19-965.25,418.59-965.19,412.68z"/>
			</g>
		</g>
	</g>
</g>
<rect class="st9" width="1199.01" height="636"/>
<g>
	<g>
		<path class="st1" d="M409.88,309.26c8.77,3.89,13.85,10.26,13.85,20.13c0,13.65-9.67,23.62-34.78,23.62h-46.73v-83.7h47.23
			c24.41,0,31.79,10.26,31.79,21.72c0,9.07-4.58,13.75-11.36,16.94V309.26z M364.74,286.64v16.64h22.82
			c8.17,0,12.16-3.19,12.16-8.17c0-5.18-3.99-8.47-12.16-8.47H364.74z M388.45,335.57c8.27,0,12.56-4.18,12.56-9.77
			c0-5.48-4.28-9.17-12.56-9.17h-23.72v18.93H388.45z"/>
		<path class="st1" d="M434.19,311.16c0-26.51,18.63-44.64,46.54-44.64c27.8,0,46.44,18.14,46.44,44.64
			c0,26.41-18.63,44.64-46.44,44.64C452.82,355.8,434.19,337.56,434.19,311.16z M504.94,311.16c0-15.45-10.66-25.21-24.21-25.21
			c-13.65,0-24.21,9.77-24.21,25.21c0,15.35,10.56,25.21,24.21,25.21C494.28,336.37,504.94,326.5,504.94,311.16z"/>
		<path class="st1" d="M538.91,311.16c0-26.51,18.63-44.64,46.54-44.64c27.8,0,46.44,18.14,46.44,44.64
			c0,26.41-18.63,44.64-46.44,44.64C557.55,355.8,538.91,337.56,538.91,311.16z M609.66,311.16c0-15.45-10.66-25.21-24.21-25.21
			c-13.65,0-24.21,9.77-24.21,25.21c0,15.35,10.56,25.21,24.21,25.21C599,336.37,609.66,326.5,609.66,311.16z"/>
		<path class="st1" d="M707.41,353.01l-25.71-32.98h-1.49l-13.45,14.05v18.93h-22.42v-83.7h22.42v37.77h1.49l35.47-37.77h25.21
			l-34.58,37.17l36.27,46.54H707.41z"/>
		<path class="st1" d="M739.8,269.3h22.52v83.7H739.8V269.3z"/>
		<path class="st1" d="M776.26,269.3h72.05v18.73h-49.52v16.94h46.93v16.64h-46.93v31.39h-22.52V269.3z"/>
		<path class="st1" d="M915.67,326.5v26.51h-22.42V326.4l-34.48-57.1h23.82l20.83,35.47h2.09l20.93-35.47h23.72L915.67,326.5z"/>
	</g>
	<g>
		<path class="st1" d="M502.93,372.97h5v24.41h-5V372.97z"/>
		<path class="st1" d="M512.34,372.97h5.84l12.41,17.49h0.52v-17.49h4.94v24.41h-5.78l-12.55-17.49h-0.44v17.49h-4.94V372.97z"/>
		<path class="st1" d="M539.83,390.03h4.53c0.26,2.53,2.3,4.1,6.48,4.15c4.01-0.03,6.31-1.45,6.31-3.63c0-1.98-1.69-2.82-4.77-3.37
			l-2.99-0.52c-4.59-0.84-8.86-2.27-8.86-7.29c0-4.56,3.86-7.21,10.4-7.21c6.13,0,10.4,2.35,10.52,8.08h-4.53
			c-0.41-2.41-2.24-4.04-6.1-4.04c-3.52,0-5.49,1.22-5.49,3.4c0,1.71,1.45,2.67,4.18,3.23l2.64,0.46c4.59,0.84,10,1.83,10,7.41
			c0,4.68-3.92,7.47-11.3,7.5C543.75,398.19,539.85,395.55,539.83,390.03z"/>
		<path class="st1" d="M566,397.38v-24.41h12.38c6.45,0,9.88,3.17,9.88,8.77c0,5.55-3.43,8.69-9.91,8.69H571v6.94H566z M571,386.19
			h7.12c3.14,0,5.08-1.48,5.08-4.45c0-3.02-1.95-4.53-5.11-4.53H571V386.19z"/>
		<path class="st1" d="M592.32,372.97h5v24.41h-5V372.97z"/>
		<path class="st1" d="M624.49,397.38h-5.03l-4.27-7.58h-8.46v7.58h-5v-24.41h12.41c6.48,0,9.79,3.11,9.79,8.57
			c0,3.43-1.71,5.93-4.36,7.26L624.49,397.38z M606.73,377.22v8.66h7.18c3.23,0,5.06-1.45,5.06-4.33c0-2.88-1.83-4.33-5.06-4.33
			H606.73z"/>
		<path class="st1" d="M628.32,372.97h5v24.41h-5V372.97z"/>
		<path class="st1" d="M637.73,372.97h5.84l12.41,17.49h0.52v-17.49h4.94v24.41h-5.78l-12.55-17.49h-0.44v17.49h-4.94V372.97z"/>
		<path class="st1" d="M690.84,397.38h-3.4l-0.03-3.66c-1.69,2.64-4.79,4.47-9.12,4.47c-7.35,0-12.93-5.38-12.93-13.02
			c0-7.61,5.46-13.02,13.31-13.02c5.11,0,10.29,2.35,11.71,8.34h-5.06c-1.08-2.53-3.46-3.95-6.6-3.95c-4.82,0-8.43,3.57-8.43,8.63
			c0,5,3.6,8.63,8.37,8.63c2.88,0,6.33-1.34,7.21-5.29h-7.67v-3.84h12.64V397.38z"/>
		<path class="st1" d="M722.72,397.38l-8.48-10.49h-0.38l-4.5,4.62v5.87h-4.97v-24.41h4.97v12.41h0.44l11.86-12.41h5.78
			l-10.26,10.84l10.87,13.57H722.72z"/>
		<path class="st1" d="M731.14,372.97h5.84l12.41,17.49h0.52v-17.49h4.94v24.41h-5.78l-12.55-17.49h-0.44v17.49h-4.94V372.97z"/>
		<path class="st1" d="M759,385.41c0-7.5,5.35-12.78,12.99-12.78c7.73,0,13.07,5.29,13.07,12.78c0,7.5-5.35,12.79-13.07,12.79
			C764.35,398.19,759,392.91,759,385.41z M780.12,385.41c0-5-3.46-8.48-8.14-8.48c-4.59,0-8.14,3.49-8.14,8.48
			c0,5.03,3.54,8.48,8.14,8.48C776.67,393.89,780.12,390.44,780.12,385.41z"/>
		<path class="st1" d="M787.07,372.97h5.06l4.33,19.03h0.46l5.03-19.03h4.36l5.08,19.03h0.46l4.27-19.03h5.11l-5.72,24.41h-6.83
			l-4.3-16.62h-0.52l-4.3,16.62h-6.77L787.07,372.97z"/>
		<path class="st1" d="M824.98,372.97h5v20.19h14.41v4.21h-19.41V372.97z"/>
		<path class="st1" d="M848.48,372.97h20.05v4.15h-15.05v6.1h14.53v3.81h-14.53v6.13h15.05v4.21h-20.05V372.97z"/>
		<path class="st1" d="M896.77,385.18c0,6.94-3.66,12.2-12.96,12.2h-10.87v-24.41h10.87C893.11,372.97,896.77,378.26,896.77,385.18z
			 M891.72,385.18c0-4.97-2.7-7.93-7.96-7.93h-5.72l-0.09,15.89h5.81C889.02,393.14,891.72,390.18,891.72,385.18z"/>
		<path class="st1" d="M925.88,397.38h-3.4l-0.03-3.66c-1.69,2.64-4.79,4.47-9.12,4.47c-7.35,0-12.93-5.38-12.93-13.02
			c0-7.61,5.46-13.02,13.31-13.02c5.11,0,10.29,2.35,11.71,8.34h-5.06c-1.08-2.53-3.46-3.95-6.6-3.95c-4.82,0-8.43,3.57-8.43,8.63
			c0,5,3.6,8.63,8.37,8.63c2.88,0,6.33-1.34,7.21-5.29h-7.67v-3.84h12.64V397.38z"/>
		<path class="st1" d="M930.38,372.97h20.05v4.15h-15.05v6.1h14.53v3.81h-14.53v6.13h15.05v4.21h-20.05V372.97z"/>
	</g>
	<g>
		<g id="XMLID_19_">
			<g>
				<path class="st1" d="M482.86,419.64c0.06,2.96-0.78,4.1-3.85,4.28c-13.57,0.83-27.12,2.12-40.7,2.75
					c-4.35,0.2-5.92,1.16-5.73,5.78c0.38,9.71,0.11,19.45,0.11,30.2c-12.83-9.25-25.01-17.68-36.77-26.65
					c-5.63-4.3-11.05-5.94-18.37-5.28c-26.54,2.41-53.16,3.89-79.76,5.68c-5.74,0.39-8.6-2.09-8.59-7.89
					c0.14-43.55,0.41-87.11,0.57-130.66c0.14-39.02,0.19-78.04,0.28-117.06c0.02-7.38,1.02-8.22,8.26-6.92
					c36.9,6.67,74.12,11.27,111.21,16.78c22.93,3.41,45.88,6.68,68.83,9.96c3.1,0.44,4.63,1.44,4.56,5.1
					c-0.11,5.23-0.16,23.36-0.18,37.54h-26.07c0.02-6.79,0.04-13.84,0.09-14.82c0.16-3.14-0.81-4.6-4-5.05
					c-28.16-4-56.29-8.09-84.44-12.15c-15.96-2.29-31.95-4.35-47.85-6.99c-4.22-0.7-4.34,0.75-4.35,3.99
					c-0.1,64.97-0.23,129.95-0.52,194.92c-0.02,4.3,1.1,5.65,5.47,5.33c22.97-1.7,45.95-3.15,68.93-4.69
					c20.27-1.36,40.52-2.93,60.8-3.98c4.75-0.24,6.12-1.53,6.01-6.29c-0.04-1.96-0.08-11.92-0.05-20.37h26.01
					c0.04,8.3,0.04,18,0.04,19.82C482.8,401.85,482.69,410.75,482.86,419.64z"/>
				<path id="XMLID_34_" class="st1" d="M263.7,412.68c0.64-67.31,1.07-134.63,1.08-201.95c0-9.36,0.28-17.1,11.22-19.49
					c0.12-0.03,0.19-0.3,0.67-1.09c-7.41-0.94-14.18-1.99-21-2.6c-5.43-0.48-7.02,1.26-7.02,6.87
					c-0.03,74.94-0.06,149.88-0.08,224.82c0,6.2,2.68,8.89,9.07,8.41c6.73-0.5,13.42-1.54,20.12-2.35c-2.2-1.63-4.48-2.71-6.89-3.15
					C265.42,421.19,263.64,418.59,263.7,412.68z"/>
			</g>
		</g>
	</g>
</g>
<rect y="-664.24" class="st1" width="1199.01" height="636"/>
<g>
	<g>
		<path class="st7" d="M409.88-354.97c8.77,3.89,13.85,10.26,13.85,20.13c0,13.65-9.67,23.62-34.78,23.62h-46.73v-83.7h47.23
			c24.41,0,31.79,10.26,31.79,21.72c0,9.07-4.58,13.75-11.36,16.94V-354.97z M364.74-377.59v16.64h22.82
			c8.17,0,12.16-3.19,12.16-8.17c0-5.18-3.99-8.47-12.16-8.47H364.74z M388.45-328.67c8.27,0,12.56-4.18,12.56-9.77
			c0-5.48-4.28-9.17-12.56-9.17h-23.72v18.93H388.45z"/>
		<path class="st7" d="M434.19-353.08c0-26.51,18.63-44.64,46.54-44.64c27.8,0,46.44,18.14,46.44,44.64
			c0,26.41-18.63,44.64-46.44,44.64C452.82-308.44,434.19-326.67,434.19-353.08z M504.94-353.08c0-15.45-10.66-25.21-24.21-25.21
			c-13.65,0-24.21,9.77-24.21,25.21c0,15.35,10.56,25.21,24.21,25.21C494.28-327.87,504.94-337.73,504.94-353.08z"/>
		<path class="st7" d="M538.91-353.08c0-26.51,18.63-44.64,46.54-44.64c27.8,0,46.44,18.14,46.44,44.64
			c0,26.41-18.63,44.64-46.44,44.64C557.55-308.44,538.91-326.67,538.91-353.08z M609.66-353.08c0-15.45-10.66-25.21-24.21-25.21
			c-13.65,0-24.21,9.77-24.21,25.21c0,15.35,10.56,25.21,24.21,25.21C599-327.87,609.66-337.73,609.66-353.08z"/>
		<path class="st7" d="M707.41-311.23l-25.71-32.98h-1.49l-13.45,14.05v18.93h-22.42v-83.7h22.42v37.77h1.49l35.47-37.77h25.21
			l-34.58,37.17l36.27,46.54H707.41z"/>
		<path class="st7" d="M739.8-394.93h22.52v83.7H739.8V-394.93z"/>
		<path class="st7" d="M776.26-394.93h72.05v18.73h-49.52v16.94h46.93v16.64h-46.93v31.39h-22.52V-394.93z"/>
		<path class="st7" d="M915.67-337.73v26.51h-22.42v-26.61l-34.48-57.1h23.82l20.83,35.47h2.09l20.93-35.47h23.72L915.67-337.73z"/>
	</g>
	<g>
		<path class="st7" d="M502.93-291.26h5v24.41h-5V-291.26z"/>
		<path class="st7" d="M512.34-291.26h5.84l12.41,17.49h0.52v-17.49h4.94v24.41h-5.78l-12.55-17.49h-0.44v17.49h-4.94V-291.26z"/>
		<path class="st7" d="M539.83-274.21h4.53c0.26,2.53,2.3,4.1,6.48,4.15c4.01-0.03,6.31-1.45,6.31-3.63c0-1.98-1.69-2.82-4.77-3.37
			l-2.99-0.52c-4.59-0.84-8.86-2.27-8.86-7.29c0-4.56,3.86-7.21,10.4-7.21c6.13,0,10.4,2.35,10.52,8.08h-4.53
			c-0.41-2.41-2.24-4.04-6.1-4.04c-3.52,0-5.49,1.22-5.49,3.4c0,1.71,1.45,2.67,4.18,3.23l2.64,0.46c4.59,0.84,10,1.83,10,7.41
			c0,4.68-3.92,7.47-11.3,7.5C543.75-266.04,539.85-268.69,539.83-274.21z"/>
		<path class="st7" d="M566-266.85v-24.41h12.38c6.45,0,9.88,3.17,9.88,8.77c0,5.55-3.43,8.69-9.91,8.69H571v6.94H566z M571-278.04
			h7.12c3.14,0,5.08-1.48,5.08-4.45c0-3.02-1.95-4.53-5.11-4.53H571V-278.04z"/>
		<path class="st7" d="M592.32-291.26h5v24.41h-5V-291.26z"/>
		<path class="st7" d="M624.49-266.85h-5.03l-4.27-7.58h-8.46v7.58h-5v-24.41h12.41c6.48,0,9.79,3.11,9.79,8.57
			c0,3.43-1.71,5.93-4.36,7.26L624.49-266.85z M606.73-287.02v8.66h7.18c3.23,0,5.06-1.45,5.06-4.33c0-2.88-1.83-4.33-5.06-4.33
			H606.73z"/>
		<path class="st7" d="M628.32-291.26h5v24.41h-5V-291.26z"/>
		<path class="st7" d="M637.73-291.26h5.84l12.41,17.49h0.52v-17.49h4.94v24.41h-5.78l-12.55-17.49h-0.44v17.49h-4.94V-291.26z"/>
		<path class="st7" d="M690.84-266.85h-3.4l-0.03-3.66c-1.69,2.64-4.79,4.47-9.12,4.47c-7.35,0-12.93-5.38-12.93-13.02
			c0-7.61,5.46-13.02,13.31-13.02c5.11,0,10.29,2.35,11.71,8.34h-5.06c-1.08-2.53-3.46-3.95-6.6-3.95c-4.82,0-8.43,3.57-8.43,8.63
			c0,5,3.6,8.63,8.37,8.63c2.88,0,6.33-1.34,7.21-5.29h-7.67v-3.84h12.64V-266.85z"/>
		<path class="st7" d="M722.72-266.85l-8.48-10.49h-0.38l-4.5,4.62v5.87h-4.97v-24.41h4.97v12.41h0.44l11.86-12.41h5.78
			l-10.26,10.84l10.87,13.57H722.72z"/>
		<path class="st7" d="M731.14-291.26h5.84l12.41,17.49h0.52v-17.49h4.94v24.41h-5.78l-12.55-17.49h-0.44v17.49h-4.94V-291.26z"/>
		<path class="st7" d="M759-278.83c0-7.5,5.35-12.78,12.99-12.78c7.73,0,13.07,5.29,13.07,12.78c0,7.5-5.35,12.79-13.07,12.79
			C764.35-266.04,759-271.33,759-278.83z M780.12-278.83c0-5-3.46-8.48-8.14-8.48c-4.59,0-8.14,3.49-8.14,8.48
			c0,5.03,3.54,8.48,8.14,8.48C776.67-270.34,780.12-273.8,780.12-278.83z"/>
		<path class="st7" d="M787.07-291.26h5.06l4.33,19.03h0.46l5.03-19.03h4.36l5.08,19.03h0.46l4.27-19.03h5.11l-5.72,24.41h-6.83
			l-4.3-16.62h-0.52l-4.3,16.62h-6.77L787.07-291.26z"/>
		<path class="st7" d="M824.98-291.26h5v20.19h14.41v4.21h-19.41V-291.26z"/>
		<path class="st7" d="M848.48-291.26h20.05v4.15h-15.05v6.1h14.53v3.81h-14.53v6.13h15.05v4.21h-20.05V-291.26z"/>
		<path class="st7" d="M896.77-279.06c0,6.94-3.66,12.2-12.96,12.2h-10.87v-24.41h10.87C893.11-291.26,896.77-285.97,896.77-279.06z
			 M891.72-279.06c0-4.97-2.7-7.93-7.96-7.93h-5.72l-0.09,15.89h5.81C889.02-271.1,891.72-274.06,891.72-279.06z"/>
		<path class="st7" d="M925.88-266.85h-3.4l-0.03-3.66c-1.69,2.64-4.79,4.47-9.12,4.47c-7.35,0-12.93-5.38-12.93-13.02
			c0-7.61,5.46-13.02,13.31-13.02c5.11,0,10.29,2.35,11.71,8.34h-5.06c-1.08-2.53-3.46-3.95-6.6-3.95c-4.82,0-8.43,3.57-8.43,8.63
			c0,5,3.6,8.63,8.37,8.63c2.88,0,6.33-1.34,7.21-5.29h-7.67v-3.84h12.64V-266.85z"/>
		<path class="st7" d="M930.38-291.26h20.05v4.15h-15.05v6.1h14.53v3.81h-14.53v6.13h15.05v4.21h-20.05V-291.26z"/>
	</g>
	<g>
		<g id="XMLID_10_">
			<g>
				<path class="st7" d="M482.86-244.59c0.06,2.96-0.78,4.1-3.85,4.28c-13.57,0.83-27.12,2.12-40.7,2.75
					c-4.35,0.2-5.92,1.16-5.73,5.78c0.38,9.71,0.11,19.45,0.11,30.2c-12.83-9.25-25.01-17.68-36.77-26.65
					c-5.63-4.3-11.05-5.94-18.37-5.28c-26.54,2.41-53.16,3.89-79.76,5.68c-5.74,0.39-8.6-2.09-8.59-7.89
					c0.14-43.55,0.41-87.11,0.57-130.66c0.14-39.02,0.19-78.04,0.28-117.06c0.02-7.38,1.02-8.22,8.26-6.92
					c36.9,6.67,74.12,11.27,111.21,16.78c22.93,3.41,45.88,6.68,68.83,9.96c3.1,0.44,4.63,1.44,4.56,5.1
					c-0.11,5.23-0.16,23.36-0.18,37.54h-26.07c0.02-6.79,0.04-13.84,0.09-14.82c0.16-3.14-0.81-4.6-4-5.05
					c-28.16-4-56.29-8.09-84.44-12.15c-15.96-2.29-31.95-4.35-47.85-6.99c-4.22-0.7-4.34,0.75-4.35,3.99
					c-0.1,64.97-0.23,129.95-0.52,194.92c-0.02,4.3,1.1,5.65,5.47,5.33c22.97-1.7,45.95-3.15,68.93-4.69
					c20.27-1.36,40.52-2.93,60.8-3.98c4.75-0.24,6.12-1.53,6.01-6.29c-0.04-1.96-0.08-11.92-0.05-20.37h26.01
					c0.04,8.3,0.04,18,0.04,19.82C482.8-262.38,482.69-253.49,482.86-244.59z"/>
				<path id="XMLID_33_" class="st7" d="M263.7-251.55c0.64-67.31,1.07-134.63,1.08-201.95c0-9.36,0.28-17.1,11.22-19.49
					c0.12-0.03,0.19-0.3,0.67-1.09c-7.41-0.94-14.18-1.99-21-2.6c-5.43-0.48-7.02,1.26-7.02,6.87
					c-0.03,74.94-0.06,149.88-0.08,224.82c0,6.2,2.68,8.89,9.07,8.41c6.73-0.5,13.42-1.54,20.12-2.35c-2.2-1.63-4.48-2.71-6.89-3.15
					C265.42-243.04,263.64-245.65,263.7-251.55z"/>
			</g>
		</g>
	</g>
</g>
</svg>
